<svg xmlns="http://www.w3.org/2000/svg" width="159" height="231" fill="none"><path fill="#0DAFEA" d="M121 24c-1-5-4-15-1-19 5-10 22-3 28 2 16 11 1 18-9 24 0 7 0 7-4 13 2 16 8 30 13 45 13 37 16 75-7 109-9 12-26 24-40 29-17 5-35 4-51-2-44-18-61-63-43-106 16-38 44-51 79-67 12-5 21-9 30-18v-6l5-4Z"/><path fill="#0A82CF" d="m14 149 9 14c10 12 28 20 43 21s33-4 43-14c24-22 25-47 27-76 3 8 5 22 8 28 2 22 2 31-6 52l-3 8c-2 2-3 3-3 5l-9 11c-4 8-11 8-12 13l4 3h-1c-3 2-7 5-11 5l-7 3c2 1 4 2 5 5-17 5-35 4-51-2h4l1-2 5-1c-7-2-12-3-17-6l7-1 2-3-13-8-8-6c-4-5-7-8-10-14-6-15-8-19-7-35Z"/><path fill="#0DAFEA" d="M52 212c17 5 34 7 51-1l9 3h2c-3 2-7 5-11 5l-7 3c2 1 4 2 5 5-17 5-35 4-51-2h4l1-2 5-1c-7-2-12-3-17-6l7-1 2-3Z"/><path fill="#0A080A" d="M60 222h1c11 3 24 3 35 0 2 1 4 2 5 5-17 5-35 4-51-2h4l1-2 5-1Z"/><path fill="#13A4E1" d="M61 222c5 0 28 1 31-2l-1-2h1-1c3-2 4 2 12 1l-7 3c-11 3-24 3-35 0ZM123 198c-4 8-11 8-12 13l4 3h-3l-9-3c9-4 13-7 20-13Z"/><path fill="#0DAFEA" d="M125 176h1l1 3c0 5-5 11-8 15-8 8-17 13-29 13l-3-2c4-4 12-6 17-9 8-4 15-13 21-20Z"/><path fill="#0C0B0F" d="M121 24c-1-5-4-15-1-19 5-10 22-3 28 2 16 11 1 18-9 24 0 7 0 7-4 13 2 16 8 30 13 45 13 37 16 75-7 109-9 12-26 24-40 29-1-3-3-4-5-5l7-3c4 0 8-3 11-5h1c5-4 11-8 15-13 27-30 26-70 14-105-6-20-13-33-14-54l-10-4-16 12-9 5c-34 15-66 28-82 64l-2 5c-7 18-7 39 0 57 6 13 18 29 32 35 5 3 10 4 17 6l-5 1-1 2h-4C6 207-11 162 7 119c16-38 44-51 79-67 12-5 21-9 30-18v-6l5-4Z"/><path fill="#13A4E1" d="m143 22-10 8 5-6c-4 1-5 4-9 4-4-3-6-18-4-22 4-2 24 3 24 12l-4 3-1 1h-1Z"/><path fill="#0DAFEA" d="M143 22h-15c0-3 1-4 3-6l6 1h1l6 1v4h-1Z"/><path fill="#0B1726" d="M138 17c-4-2-10-5-11-9 2-1 4 3 7 3 2 2 6 3 9 3h-1l5 2-1 1-2 1-6-1Z"/><path fill="#13A4E1" d="m121 29 3 1 9 5v2l-2 1h-1c-3 0-6-2-8-4l-1-5Z"/><path fill="#0A82CF" d="m125 28 8 4h-4l-4-4Z"/><path fill="#9BDCF1" d="m95 55 9-5c3 4 4 2 5 5-2 3-7 11-12 9v-2c1-3 3-2 5-5-2-3-4-2-7-2Z"/><path fill="#13A4E1" d="M144 122c5 7 1 51-6 52 8-21 8-30 6-52ZM31 198c-4-2-11-9-10-14 3 6 6 9 10 14ZM13 119v1l1 7-2-2-1-1 2-5ZM135 182v3l-3 2c0-2 1-3 3-5Z"/><path fill="#9BDCF1" d="m63 86 4 1 2 4c1 6-6 15-9 20-4 5-9 11-16 12l-3-2c-2-1-4-3-4-5-1-5 1-10 4-14 5-8 13-14 22-16ZM83 71h1c3 0 4 0 6 2v3c-1 5-5 7-8 8l-3 1-5-3v-4c2-4 6-5 9-7Z"/><path fill="#13A4E1" d="m139 88 2 1v5c-2-1-1-4-2-6Z"/></svg>