<svg xmlns="http://www.w3.org/2000/svg" width="209" height="270" fill="none"><g clip-path="url(#a)"><path fill="#050504" d="M32.57 125.03c.25-3.5.76-28.04-.46-29.81l-.47-.12c-12.4-3.24-14.2-21.94-11.4-32.42 1.25-4.7 2.97-2.88 5.29-4.48-.94-12.09-7.75-26.45.86-35.91 1.39-1.52 4.1-4.44 4.93-6.2l-1.18-1.6c1.38-1.22 5.08-2.12 6.87-3.14C48.18 4.97 58.47.6 71.4.06c6.58-.28 21.85 8.71 23.5 8.47.14-.96.23-1.58.48-2.52 4.18 2.36 4.86 6.72 5.66 11 1.66-.96 2.68-1.53 4.16-2.74l.63 4.96c6.02 6.89 8.7 8.28 7.89 17.08-.71 7.76-.94 14.33-2.95 22.1 1.4.1 3.3.15 4 1.45 5.26 9.8 2.08 26.6-5.77 34.22-1.78 1.73-4.28.11-4.31 2.84-1.63 11.11-2.83 21.74-2.55 33 7.5 4.6 17.96 7.97 26.06 12.38 4.03 2.2 9.19 5.73 12.9 7.32 2.8 1.2 10.39 2.35 13.78 3.13 15 3.1 26.95 11.12 33.06 25.59 3.9 9.23 6.53 20.4 5.9 30.41-.58 9.01-1.27 11.4 3.03 19.77 1.8 3.51 3.27 9.3 4.58 13.17 1.7 6.15 2.89 12.63 4.16 18.85.6 2.94 1.63 10.92 2.82 12.99 5.84 10.18 10.97 15.44 14.02 27.25a87.02 87.02 0 0 1 2.54 16.73c.82 13.18-.12 26.07.34 39.12.23 5.46.65 10.9 1.28 16.34.2 1.74.35 3.76.64 5.47.97 5.37-.13 10.96-.11 16.3.04 9.47.49 19.74 1.5 29.1 1.1 10.04-3.47 10.72-11.15 15-3.02 1.68-6.07 4.33-9.6 5-10.4.5-20.84.2-28.68-7.7-1.31-.9-3.35-1.27-4.5-2.32-2.85-2.6-2.63-5.67-3.42-8.84-1.83-7.34 1.69-11.74 3.05-17.7 3.03-13.18 2.33-14.47 14.67-21.99-3.23-10.18-1.24-18.2-6.5-29.36-5.44-11.56-13.87-17.93-17.95-29.77-4.22-12.27-1.55-25.22-4.7-37.29-.94-3.56-5.3-11.38-7.22-14.82-3.11 5.97-6.8 13.63-8.46 20.18-.69 2.72-.8 8.9-.93 11.93-.33 6.83-.53 13.68-.59 20.52-.1 12.9 2.66 32.9 5.14 45.67.88 4.51 4.52 14.74 5.91 19.82 3.95 14.37 7.02 27.9 7.15 42.95.12 14.24-1.7 29.08-5.03 42.96-1.46 6.1-4.48 13.82-5.28 19.84-.2 1.5.7 9.05.64 11.72-.11 5.16-1.84 11.07-1.09 15.78 1.18 7.4 3.27 15.07 4.87 22.42a108.9 108.9 0 0 1 2.36 20.86c.25 18.4-5.27 36.49-5.04 54.93.03 2.57 1.2 5.64 1.1 8.27-.12 2.7-1.36 5.34-1.02 8.19l.03.28c.83 6.81 5.15 9.24 2.36 17.32 6.35 7.67 12.75 15.8 20.18 22.45 2.27 1.97 4.92 3.13 7.59 4.47 7.47 3.75 15.53 6.8 19.36 14.82 1.92 4.02 8.42 13.77 1.87 17.17-13.2 6.84-31.97 5.49-46.38 4.09-5.83-.67-13.76-2.77-18.14-5.87-1.58-1.12-4.53-4.08-6.43-5.41-1.11.12-8.84 1.25-9.26 1.2-6.77-.95-17.52-3.44-23.4-7-1.04-.62-1.53-3.5-1.5-4.67.25-8.24-.27-17.08 1.24-25.18.64-3.46 2.67-7.27 3.73-10.67.22-.7.26-1.52.26-2.22.01-2.64-.08-5.19.03-7.84.08-2.04.78-6.23.7-7.96-.1-2.61-2.08-6.2-2.35-9.2-.25-2.74.94-6.88.96-8.99.04-5.03-1.26-17.1-2.78-21.57-3.9-11.5-11.23-19.54-11.7-32.72-.56-16.05 4.9-32.5 6.47-48.3-7.87-16.02-6.5-27-9.99-43.96-2.74-13.29-9.73-26.78-11.73-40.48a75.87 75.87 0 0 0-1-4.76c-3.34 11.43-5.5 21.26-10.07 32.6-5.16 12.76-11.43 24.43-16.8 37-2.03 4.74-3 11.92-5.15 17.29-2.66 6.66-6.8 10.85-9.37 16.96-1.25 3.85-1.16 8.69-1.39 12.59-.57 9.74.38 21.68-2.94 30.95-5.44 15.15-16.91 26.7-19.31 43.27a48.27 48.27 0 0 0-.5 9.06c-.17 2.24-2.5 6.91-2.75 9.27-.67 6.15-.37 12.3-.82 18.5-.37 5-3.29 3.56-3.23 7.12.05 3.02 1.3 8.33 1.54 11.29.52 6.4 1.99 21 .78 26.68a25.34 25.34 0 0 1-6.15 3.56c.24 3.98.25 7.17.2 11.17-8.73 13-38.84 11.44-52.1 7.1-7.1-2.33-7.68-4.81-7.94-11.57.28-1.81.28-2.9.3-4.75 2.22-12.98 7.68-15.38 13.44-25.08.71-1.21 7.96-20.7 8.39-22.53-.43-.56-2.39-3.14-2.46-3.65-.48-3.38-.94-10.45-.57-13.63.4-3.31 2.51-8.14 3.25-11.53.73-3.32-.4-6.36-.15-9.14.29-3.31 2.11-7.47 2.11-11.07.01-5.71.32-12.54-.06-18.2-.8-11.9-1.96-21.41-.02-33.39 1.74-12.08 6.42-22.76 12.5-33.24 1.82-3.13 7-10.24 7.38-13.27 1.09-8.55 4.6-17.3 5.07-25.78.34-6.2-1.64-13.04-2.02-19.24-.88-11.5-.69-22.85.59-34.28a209.27 209.27 0 0 1 9.23-41.56c2.06-6.41 4.69-13.75 6.5-20.12 1.04-3.66.94-12.76 1.61-17.14 1.66-10.8 4-22.51 4.83-33.35.41-5.32-.94-15.4-1.44-20.9-.52-5.74.32-8.81-3.27-13.35a559.46 559.46 0 0 1-18.43-24.85c-6.58 11.88-6.66 12.47-15.06 22.66-1.01 10.88 1.16 21.41-.42 32.14-1.04 7.03-3.42 13.86-6.11 20.36-4.28 10.32-6.03 19.41-4.43 30.54.51 3.58 1.34 7.3 1.78 10.94 3.05 1.22 13.67 5.05 15.56 7.62 3.64 5.15 5.71 11.54 8.53 17.2 2.2 4.42-.78 12.81-2.08 17.37a7.63 7.63 0 0 1-5.73 5.2c-2.27 4.4-3.22 6.15-7.59 8.71-1.42.01-3.19.07-4.58 0-6.28 3.83-14.4 3.92-21.4 2.95-3.08-.42-15.53-7.08-16.68-9.8-3.78-9.91-3.37-21.71-5.38-32.17-.53-2.77-3.03-9.06-3.03-11.14-.02-22.46-7.26-43.35-8.99-65.46-.56-10.63 1.15-21.63 2.92-32.09.96-5.69 6.74-12.6 7.53-18.48 1.49-11.1 1.13-21.78 3.68-32.86 1.4-6.04 3.3-11.94 5.72-17.65 1.12-2.65 4.02-8.62 4.6-11 .9-4.54.32-9.4.65-14.02 1.1-15.18 8.38-29.61 21.66-37.59 9.37-5.63 18.5-6.91 28.8-9.54 2.57-.66 9-5.3 12.06-6.79 6.46-3.1 12.95-6.1 19.5-9.02 7.77-3.46 11.94-4.4 17.79-10.93Z"/><path fill="#0F7CAC" d="M21.14 137.22c2.8 6.14 4.5 7.91 9.3 12.63 8.26 6.51 41.36 29.65 50.7 32.37 14.57-6.17 34.66-27.39 28.12-44.5 1.93.88 3.8 1.83 5.68 2.8l1.26.44c4.89 2.25 9.7 4.64 14.45 7.18 2.84 1.49 6.85 3.77 9.76 4.88 4.06 1.54 9.28 2 13.6 3.1 17.22 4.4 26.37 11.36 32.56 28.24a69.5 69.5 0 0 1 4.01 23.19c.04 4.59-2.75 15.88-1.09 17.63l1.32-.78c2.98 1.88 7.98 21.25 8.82 25.07 1.4 6.25 2.28 12.52 3.53 18.8 2.07 10.43 11.15 17.72 14.45 27.63 7.03 21.07 3.17 44.43 4.45 66.27.4 6.71.03 13.07 1.89 19.62-6.5-7.01-16.27-10.21-25.4-6.44-3.57 1.76-4.6 2.93-7.36 5.71-.7-2.45-1.78-12.01-1.13-14.28l-.4-.57c-.83-1.18-3.62-11.96-5.8-15.5-3.4-5.52-7.02-10.24-10.65-15.56-8.93-13.1-7.56-27.53-8.7-42.86 5.82 4.2 8.03 5.82 15.1 8.17-7.87-4.44-17.68-15.35-20.7-23.79a36.46 36.46 0 0 1-2-9.48c-.12-1.93.02-4.14.28-6.08 1.46-11.07-.54-21.87 4.36-32.4 2.06-6.08 10.59-25.84 8.48-31.61a70.01 70.01 0 0 1-4.84 17.05c-.37-5.74-.6-9.69-1.6-15.37l-.57.34-.44 2.35c-.49 14.45-1.8 24.24-12.98 35.22-2.54 2.5-6.63 5.3-10.08 6.32-.36.02-.83-.24-1.2-.39l-1.33.68.23.33 2.23.25a67.83 67.83 0 0 0 13.54-5.17c1.47 16.25.33 26.83-7.5 41.35a57.64 57.64 0 0 0-4.77 12.44c-1.13 4.08-1.65 35.9-2.37 36.72l.14.4c.64.96.56 1.09.48 2.31-3.02 5.58-30.05 10.21-37.04 12.27 2 .2 4-.48 6.03-.71 11.1-1.24 20.95-4.33 31-9.24.72 4.67.63 9.45 1.05 14.12-29.84 16.6-75.7 14.37-107.49 5.28a97.09 97.09 0 0 1-6.8-2.15c.08-5.07.26-10.36.01-15.41 15.99 5.32 33.9 8.1 50.71 6.22-2.1-.28-4.4-.48-6.52-.5-15.63-.21-29.78-3.4-44.77-7.5l-14.64-5.04c.23-9.62-3.2-42.3-6.98-50.3.63 3.03 1.05 7.47 1.43 10.64-6.12-7.15-15.77-18.16-16.77-27.97-.7-6.92 6.23-20.39 10.8-25.68 9.37 2.1 22.23 7.2 32 8l.63-.89c1.16.2 2.47.53 3.6.32 3.02-1.66 8.71-1.11 10.15-2.75-3.41-2.96-12.68-5.79-17.18-8.15a146.27 146.27 0 0 1-36.14-26.65c-1.56-1.56-1.1-.54-1.43-3.03l-.42-.32c-2.56.54-7.12 3.8-9.79 4.8-7.63 2.87-18.13 7.63-25.91 9.58-7.93-6.33-13-19.84-15.36-29.35 2.54-8.45 7.33-15 14.06-20.51l1.33-.97a61.56 61.56 0 0 1 29.35-10.31c1.2-.3 2.33-.28 3.56-.33l.1-.85c-.53-.65-.42-.29-.41-1.08 4.05-1.66 9.32-4.6 13.4-6.6a704.41 704.41 0 0 1 20.6-9.65Z"/><path fill="#0E567B" d="M-1 235.96c9.36 2.1 22.22 7.2 31.98 8l1.53.24c-1.27.46-1.7 1.07-2.98 1.32-6.05 1.17-10.24 2.08-15.02 6.16 3.15 4.94 8.49 9.09 12.54 13.41l-.1.57a4.9 4.9 0 0 1-4.7-.92 69.16 69.16 0 0 1-6.41-3.5c-.24.71-.3.95-.21 1.71-1.05 1.47-1.49 1.31-3.36 2.2 5.64 6.73 14.83 18.69 22.45 21.94 4.35-2.45 17.34-11.88 20.63-12.14 2.16-.65 14.51-7.98 17.38-7.62-.65.61-9.86 4.76-12.03 6.03-1.3 2.32-3.48 2.94-5.68 4.37-4.76 3.1-8.57 6.17-12.21 10.58.36.31.65.54 1.03.83l-.24.22a15.15 15.15 0 0 1-5.59 3.51l-5.78 3c-4.13-1.02-9.2-2.4-13.18-3.9 1.16 6.14 2.63 12.18 3.65 18.33 1.11 6.66 1.74 13.5 2.86 20.16 2.67.94 5.19 1.68 7.56 3.25-2.13-.69-5.12-1.52-7.15-2.28l-.82 2.89-14.64-5.05c.23-9.62-3.2-42.3-6.98-50.3.63 3.03 1.05 7.47 1.43 10.64-6.12-7.15-15.77-18.16-16.77-27.97-.7-6.92 6.23-20.39 10.8-25.68Z"/><path fill="#0C161A" d="M3.56 245.42c2.99 4.3 6.11 8.72 10.07 12.2 2.68 2.34 6.82 3.99 8.63 7.13a69.15 69.15 0 0 1-6.42-3.52c-5.11-3.88-10.02-9.75-12.28-15.8ZM55.35 274.95c2.16-.65 14.51-7.98 17.38-7.62-.65.61-9.86 4.76-12.03 6.03l-.35.13c-3.24 1.15-16.02 10.3-16.5 10.22.84-1.37 9.77-7.32 11.5-8.76Z"/><path fill="#050504" d="M18.8 280.2c-4.81-3.68-11.3-9.18-14.57-14.35l.78-.11c3.07 1.18 7.81 6.84 10.33 9.52.54-.06.35-.02.85-.12l.33-.07c.89.58 1.12.64 1.6 1.54-.85.73-.62.3-.92 1.21.92 1.02 1.33 1.21 2.48 1.93l-.88.45Z"/><path fill="#0E567B" d="M161.55 228.7c.9 3.08-.32 6.98.06 10.26.69 6.12 1.65 12.17 3.36 18.1 1.93 6.72 3.16 13.79 6.38 20.04 3.41 6.61 9.06 6.9 15.63 6.84l1.07.63.28 1.24c-2.18 1.81-6.83 5.63-9.63 5.4-1.97-.17-3.24-1.63-5.02-1.52 1.97 2.85 3.84 3.08 7.06 3-.78 1.04-1.24 1.71-2.2 2.61 1.75 1.56 3.26 3.3 5.59 3.48 3.1-1.07 2.64-4.9 6.3-5.26 1.2-2.34 5.23-7.48 6.98-9.8a13.02 13.02 0 0 1 2.92-2.95c-2.77 8.2-4.41 9.69-8.34 16.62-1.65 2.9-6.26 15.63-7.12 18.85-2.64-7.71-3.14-9.89-11-12.79 1.14 18.34.41 22.2 12.74 36.4a84.2 84.2 0 0 0 1.56-7.24c.35-1.72.49-2.88.67-4.63 0-2.94-.1-3.63 1.88-5.58l.64-.62c1.06.45 1.17 2.3.98 3.36-.9 5.12 2.35 34.17 5.46 36.57 1.1-.16 1.51-.41 2.4 0-1.14.7-1.4.71-2.74.9-3.2 1.32-4.72 1.9-7.4 4.17l-.4-.57c-.83-1.18-3.62-11.96-5.8-15.5-3.4-5.52-7.02-10.24-10.65-15.56-8.93-13.1-7.56-27.53-8.7-42.86 5.82 4.2 8.03 5.82 15.1 8.17-7.87-4.44-17.68-15.35-20.7-23.79a36.55 36.55 0 0 1-2-9.48c-.12-1.93.02-4.14.28-6.08 1.46-11.07-.55-21.87 4.36-32.4ZM21.14 137.22c2.8 6.14 4.5 7.91 9.3 12.63-3.48 1.19-5.44-.21-8.96.83-2.98-2.14-5.48-6.25-8.58-8.96a36.83 36.83 0 0 0 6.08 7.91c-5.85 1.72-14.97 3.34-21.24 4.73 1.99.2 4.7.34 6.52.98-4.92.06-6.4.06-11.23 1.46l-.08-.31c-2.2-.6-6.76-.73-9.07-.77 1.2-.29 2.33-.27 3.56-.32l.1-.85c-.53-.65-.42-.29-.41-1.08 4.05-1.66 9.32-4.6 13.4-6.6a704.41 704.41 0 0 1 20.6-9.65ZM119.36 241.31c7.36-3.24 19.3-4.7 27.15-9.35 2.03-1.2 7.97-6.05 9.54-5.86.19 1.03-.03.87-.83 2.08a46.87 46.87 0 0 1-8 9c-1.31 1.15-7.54 5.38-7.7 5.82-.36.03-.83-.23-1.2-.38l-1.33.68.23.33 2.23.25c-4.66 1-14.86-1.66-20.09-2.57Z"/><path fill="#0C161A" d="M138.32 242.62c.25-.21 4.69-3.36 4.82-3.42 2.79-1.27 10.53-10.5 12.08-11.02a46.82 46.82 0 0 1-8 9c-1.31 1.15-7.54 5.38-7.7 5.82-.36.03-.83-.23-1.2-.38ZM12.9 141.72c3.1 2.7 5.6 6.82 8.58 8.96 3.58 3 8.77 6.23 12.62 9.12 14.38 10.78 24.57 16.95 41.1 23.93-14.22-3.1-45.03-23.94-56.22-34.1a36.86 36.86 0 0 1-6.08-7.9ZM114.94 140.52l1.26.44c-.36.92.82 7.28.5 9.55-1.87 12.72-12.64 24.24-22.2 31.8l-.42-.06c.74-1.4 5.95-5.5 7.49-7.15 9.25-9.84 17.19-20.27 13.38-34.58Z"/><path fill="#050504" d="M4.26 155.34c1.6.33 3.57.58 4.87 1.45-1.5 1.26-12.8.4-15.93.68l-.4-.28.23-.39c4.82-1.4 6.31-1.4 11.23-1.46Z"/><path fill="#0C161A" d="M31.62 243.07c1.16.2 2.47.53 3.6.32l1.5.66-.19.31c-1.38-.01-2.64 0-4.02-.16l-1.53-.25.64-.88ZM162.59 193.71c.75 1.83.8 3.11 1 5.07l-.57.34-.44 2.35.01-7.76Z"/><path fill="#050504" d="m81.47 187.85.38-.07a45.12 45.12 0 0 1 32.2 8.7c-3.47 5.2-6.2 10.16-9.07 15.7-4.6-3.83-8.51-6.84-14.61-7.88-9.43-1.6-17.61 3.62-18.96 13.35-1.46 10.53 3.66 18.14 14.54 19.08 8.93.77 13.08-1.97 19.68-7.37 1.17 1.23 2.47 3.14 3.5 4.56 2.26 3.15 4.48 6.32 6.65 9.53a38.98 38.98 0 0 1-21.46 10.5c-10.77 1.6-21.55-.56-30.6-7.13-14.4-10.43-18.51-31.96-7.56-46.35 6.25-8.21 15.22-11.43 25.3-12.62Z"/><path fill="#F8F6F5" d="M85.63 189.78c9.87-.15 17.06 1.8 25.56 6.9-1.85 3.75-4.91 8.42-7.2 11.91-12.48-9.72-30.62-10.13-34.52 8.27-3.83 18.06 14.78 26.78 29.38 19.8 2.53-1.21 4.44-2.73 6.67-4.45l2.78 4.09c1.63 2.32 3.2 4.69 4.72 7.09-7.47 5.36-12.9 8.05-22.36 8.83-22.52 2.09-42.91-16.18-37.91-39.56 3.58-16.75 17.73-21.9 32.88-22.88Z"/><path fill="#0E567B" d="M141.1 169.82a86.24 86.24 0 0 1-3.83-3.58l.6.03-.44-.1.31-.13c.97.43 1.07.47 2.12.65l.24.03c2.44.1 13.95 12.52 13.87 15.09-.47-.52-.77-.86-1.29-1.34l-.43.1c-3.66.88-7.46-8.18-11.15-10.75Z"/><path fill="#0D6C95" d="M141.1 169.82a86.24 86.24 0 0 1-3.83-3.58l.6.03-.44-.1.31-.13c.97.43 1.07.47 2.12.65l.24.03c1.15 1 1.52.97 1.81 2.25l-.81.85Z"/><path fill="#0E567B" d="M6.91 167.42c1.4 4.08-5.72 16.87-8.45 20.05-.94-2.4 2.9-10.98 4.3-13.31 1.76-2.95 2.6-3.13 4.15-6.74Z"/><path fill="#0C161A" d="M159.91 167.11c3.62 4.06 6.3 18.91 6.6 24.4.14 2.61.13 6 .44 8.54l.04.32c-2.11-1.47-3.14-19.5-3.87-23.12-.57-2.78-2.32-7.23-3.2-10.14Z"/><path fill="#050504" d="M102.84 266.1c8.43 1.66 17.7 9.86 21.39 17.59-2.05-.77-5.7-6.56-7.93-8.64-4.36-4.09-8.7-5.8-13.46-8.95Z"/><path fill="#0C161A" d="M123.59 157.74c1.84-.03 15.16-.33 15.76.18-5.06 1.2-10.78 1.55-15.76-.18Z"/><path fill="#324146" d="M151.74 249.61c.67 3.2-8.3 14.82-10.86 16.97-.11-.91 1.33-2.21 2.13-3.24a72.22 72.22 0 0 0 8.73-13.73Z"/><path fill="#0C161A" d="m94.65 262.65.05.47c-2.25 5.44-2.98 7.05-7.47 10.53l-.09-.34c.61-1.42 6.22-8.81 7.51-10.66Z"/><path fill="#324146" d="M174.16 210.55c-.38 2.44-4.82 8.57-6.48 10.7-.04-1.88 5.1-8.84 6.48-10.7Z"/><path fill="#0D6C95" d="M177.16 217.27c.43 1.23-1.06 3.26-1.71 4.46l-.27-.67c.08-1.52 1.07-2.57 1.98-3.8Z"/><path fill="#0E567B" d="M179.1 221.08c2.14.22 2.67.88 3.93 2.45-1.8-.4-2.65-1.27-3.93-2.45Z"/><path fill="#0F7CAC" d="M-59.5 225.62c-4.43-14.41-7.07-22.9-1.36-38.1 2.36 9.5 7.43 23.02 15.36 29.35 7.78-1.95 18.28-6.72 25.91-9.58 2.67-1 7.23-4.26 9.8-4.8l.41.32c.32 2.5-.13 1.47 1.43 3.03a146.27 146.27 0 0 0 36.14 26.65c4.5 2.36 13.77 5.19 17.18 8.15-1.44 1.64-7.13 1.09-10.16 2.75-1.12.2-2.43-.12-3.6-.32-7.93-2.56-17.7-6.44-24.43-11.43C.8 226.9-9.11 218.9-10.48 210.88l-.87-.38c-.6 3.63-.62 5.76-.5 9.47-1.53-2.51-3.07-5-4.65-7.48 5.3 15.91 5.96 13.56 2.06 30.9-1.69 9.2-6.22 25.22-11.93 32.68-2.5 5.44-13.68 17.67-13.4 23.01l3.58-3.45c.9 9.15 1.41 21.63-.52 30.51-1.79 8.22-5.57 16.2-7.93 24.32-1.8 6.2-1.64 10.37-2 16.6l-.26.55c.61 1.33 1.25 9.94 2.6 14.21-10.49-4.21-17.17-2.75-26.82 2.8-4.1 3.13-5.18 4.34-8.19 8.3-.39-2.76-2.02-17.16-1.34-19.35-.52-.57-.42-.55-.71-1.32.17-4.73-2.13-15.45-3.2-20.17-3.54-15.88-5.9-29.63-3.87-46.03 1.41 2.81 3.04 6.39 4.9 8.84-3.55-7.97-4.63-17.57-1.21-25.7a280.05 280.05 0 0 1 8.82-19.17l-1.14-.45c-.4-2.32.01-7.33.14-9.81.92-17.24 5.12-28.34 11.32-43.97 1.56 3.69 3.32 6.93 6.1 9.83Z"/><path fill="#0E567B" d="M-59.5 225.62c-4.43-14.41-7.07-22.9-1.36-38.1 2.36 9.5 7.43 23.02 15.36 29.35 7.78-1.95 18.28-6.72 25.91-9.58 2.67-1 7.23-4.26 9.8-4.8l.41.32c.32 2.5-.13 1.47 1.43 3.03a146.27 146.27 0 0 0 36.14 26.65c4.5 2.36 13.77 5.19 17.18 8.15-1.44 1.64-7.13 1.09-10.16 2.75-1.12.2-2.43-.12-3.6-.32-7.93-2.56-17.7-6.44-24.43-11.43C.8 226.9-9.11 218.9-10.48 210.88l-.87-.38c-.6 3.63-.62 5.76-.5 9.47-1.53-2.51-3.07-5-4.65-7.48 5.3 15.91 5.96 13.56 2.06 30.9-.95-9.37 1.82-18.76-4.8-27.44-2.5.47-3.54.68-6.05.68-5.73 2.45-14.89 7.09-19.96 8.99-.57 1.06-3.41 2-4.54 2.87-5.13 3.96-7.46 2.55-12.69.18-1.42 10.44-3.6 30.22-6.8 39.81-3.81 11.44-11.67 15.46-11.45 31.1.2 13.42 5.63 20.62 7.82 31.6-4.58-3.54-7.15-5.5-10.82-9.92 1.78 15.5 6.23 31.56 9.81 46.84-2.06 1.03-6.31 4.27-7.44 4.15.17-4.73-2.13-15.45-3.2-20.17-3.54-15.88-5.9-29.63-3.87-46.03 1.41 2.81 3.04 6.39 4.9 8.84-3.55-7.97-4.63-17.57-1.21-25.7a280.05 280.05 0 0 1 8.82-19.17l-1.14-.45c-.4-2.32.01-7.33.14-9.81.92-17.24 5.12-28.34 11.32-43.97 1.56 3.69 3.32 6.93 6.1 9.83Z"/><path fill="#F8B080" d="M76.96 27.84a17.17 17.17 0 0 0 6.01-2.5c4.33 2.9 5.97 2.41 11.25 2.73 8.1 8.83 4.8 9.9 6.77 19.8 2.36 11.8 7.07 23.17 2.02 35.55l.83.52c.35 2.02-1.08 5.42-1.31 7.72-.57 5.35.46 12.84-2.88 17.4-3.72 5.01-8.44 9.54-12.73 14.05-2.42 2.55-5.62 6.12-9.35 6.2-8.64.21-21.06 1.98-25.7-7.15-4.15-3.89-12-10.8-14.87-15.13-2.3-3.46-2.18-16.7-3.02-21.68 1.1 1.93 1.46 2.64 2.93 4.25a49.17 49.17 0 0 1-3.03-33.04c.5-1.9 2.03-3.99 2.64-5.7.5-1.44.58-4.27.87-6.08.38-9.6 1.27-12.73 9.39-18.55 3.12 1.08 15.8 4.77 18.15 2.6l-.68-.76.25-.74c2.16.83 4.84 1.95 7.01 2.64 1.22-.6 2.39-1.15 3.55-1.87l1.9-.26Z"/><path fill="#BB7449" d="M36.91 89.6a49.17 49.17 0 0 1-3.03-33.04c.5-1.9 2.03-3.99 2.64-5.7.5-1.44.58-4.27.87-6.08l.39 1.01c.68-.45.65-.47 1.16-1.13.79.84 1.17 9.77 1.33 11.7-2.35 2.75-3.03 3.63-4.5 6.88 3.81-2.82 5-3.39 9.6-4.89 2.51.82 5.27 1.8 7.85 2.3-2.42.02-5.3-.04-7.67.08-1.5 1.05-2.92 1.91-4 3.4l-.23 2.46c-1.28.81-3.89-.45-5.27-.97-3.13 4.3 4.06 27.27 6.24 32.03 1.1 4.44 2.16 9 4.1 13.16 2 3.5 4.31 7.52 5.48 11.35-4.15-3.89-12-10.8-14.87-15.13-2.3-3.46-2.18-16.7-3.02-21.68 1.1 1.93 1.46 2.64 2.93 4.25Z"/><path fill="#050504" d="M46.4 110.81c-2.17-1.13-5.18-11.05-4.11-13.17 1.1 4.45 2.16 9.01 4.1 13.17ZM44.5 53.07c3.85.38 14.98 1.6 18.14 4.34 1.8 1.56-.71 3.18 2.74 6.24.78 2.56-.68 7.73-.52 10.83-.98-.19-.52.02-1.3-.8.68-3.31.61-5.6.62-8.93-2.02-1.15-2.14-.9-3.61-2.73-2.41-.59-4.89-1.3-7.35-1.37-2.58-.5-5.34-1.48-7.86-2.3-4.58 1.5-5.78 2.07-9.6 4.89 1.48-3.26 2.16-4.13 4.51-6.88 1.5-1.28 2.56-2.25 4.23-3.29Z"/><path fill="#452E1F" d="M103.84 83.94c-1.1 1.67-5.68 9.6-6.44 11.23l-.2-.3c.24-1.15 4.83-9.3 5.81-11.45l.83.52Z"/><path fill="#A56842" d="M63.45 80.69c.3-1.59 1.02-4.88-.04-6.17l.14-.84c.79.82.33.61 1.31.8.36 1.57-.86 4.59-1.41 6.21Z"/><path fill="#050504" d="M78.11 56.47c11.42-3.03 19.9-7.97 23.9 6.47-9.05-8.94-9.5-3.8-19.88-1.8l.71.76c-1.36.56-2.72 1-3.15 2.58-3.37.22-4.67 2.04-4.63 5.23-.25-.6-.2-2.31-.64-3.7l-.72 1.05c-.62-3.6 2.03-8.02 4.41-10.59Z"/><path fill="url(#b)" d="M74.42 66c.6-3.96 4.44-4.54 7.71-4.86l.71.76c-1.36.56-2.72 1-3.15 2.58-3.37.22-4.67 2.04-4.63 5.23-.25-.6-.2-2.31-.64-3.7Z"/><path fill="#BB7449" d="M71.3 90.26c2.69-1.79 4.5-3.62 7.3-1.06l.47.48c-.43.79-.78 1.19-.65 2.06l-.3.2c-7.35 5.12-5.32 10.43-14.46.94-1.93-1.4-2.15-1.55-3.53-3.5l.43-.51 1.04.75c.6-.39.65-.36 1.07-.93 3.12-.72 3.74-.68 6.44 1.31.84.03 1.38 0 2.19.26Z"/><path fill="#050504" d="m60.56 88.87 1.04.75c.6-.39.65-.36 1.07-.94 3.12-.71 3.74-.67 6.44 1.32-3.81 1.47-5.98-.9-5.45 2.88-1.93-1.4-2.15-1.55-3.53-3.5l.43-.51ZM71.3 90.26c2.69-1.79 4.5-3.62 7.3-1.06-2.54.76-5.04 2.07-7.39 1.27l.09-.2ZM42.92 66.94c2.85-4.7 8.61-6.5 13.9-4.72 1.52.5 1.6 1.27 2.14 2.63.79 1.15 1.5 2.04 1.97 3.35l-.43.32-.18-.3-2.93.14c-4.87 2.02-9.93.3-14.47-1.42Z"/><path fill="#F8F6F5" d="M57.4 68.36c-1.3 0-1.63 0-2.89-.29.34-1.3 1.36-3.59 2.82-3.7l1 .91.63-.43c.79 1.15 1.5 2.04 1.97 3.35l-.43.32-.18-.3-2.93.14Z"/><path fill="#251912" d="M58.96 64.85c.79 1.15 1.5 2.04 1.97 3.35l-.43.32-.18-.3c-.68-.94-1.34-1.97-1.99-2.94l.63-.43Z"/><path fill="#F8F6F5" d="M48.36 63.63c1.53 1.7-1.37 1.1 2.5 4.69l-.03.26-1.4-.01-1.22-.44c-1.39-.5-1.8-.62-2.37-1.82.37-1.24 1.45-1.84 2.52-2.68Z"/><path fill="#050504" d="M82.85 61.9a40.6 40.6 0 0 1 8.5-.02c2.16 1.42 3.18 2.15 4.58 4.4-4.22 1.73-8.9 3.96-13.57 2.15-.33-.13-.25-.07-.41-.29l-2.97-.47-.2.39-.51-.03c.05-1.02.94-2.56 1.42-3.55.43-1.58 1.79-2.02 3.16-2.58Z"/><path fill="#F8F6F5" d="M78.98 67.67c.8-1.23 1.86-3.3 3.13-3.67 1.54 1.38 1.24 2.58 3.04 4.11-.8 0-2.5-.06-3.2.03l-2.97-.47ZM90.43 63.43c1.3.74 2.67 1.2 2.63 2.82-.97 1.19-2.3 1.44-3.81 1.97l-2.1-.11c2.56-1.66 2.62-1.73 3.28-4.68Z"/><path fill="#050504" d="M59.16 107.55c4.64.94 10.38 1 15.14.66 1.58-.11 3.51-.96 4.96-.9l-.69 1.1c-.93 4.6-10.43 6.44-14.27 3.9-.2-.15-.46-1.25-.55-1.59l-4.59-3.17Z"/><path fill="#BB7449" d="M63.75 110.72c6.76.27 8.7.66 14.82-2.32-.93 4.62-10.43 6.45-14.27 3.9-.2-.14-.46-1.24-.55-1.58Z"/><path fill="#050504" d="m87.83 98.15.45.12c.83.85 1.25.98 1.43 2-2.52.17-8.3 3.14-10.83 2.84-10.36-1.24-17.59 2.81-26.89-2.85-1.22.36-1.4.64-2.46.3l.35-.57c4.79-2.46 4.68 1.74 8.28 1.7 6.71-.06 25.3 2.38 29.67-3.54ZM74.42 66c.43 1.4.39 3.1.64 3.71.06.9.1 2.6.23 3.43l-.43 2.82c-.84-2.7-1-6.06-1.16-8.9l.72-1.05Z"/><path fill="#452E1F" d="M79.07 89.68c.69-2.53.19-3.68-.46-6.2l.3-.12c1.74 2.23 2.75 6.87-.49 8.38-.13-.87.22-1.27.65-2.06ZM96.3 99.75c.42 3.33-2.26 8.7-3.82 11.6-.13-1.5 3.05-9.38 3.83-11.6Z"/><path fill="#A56842" d="M75.29 73.14c.23 2.17.55 4.42-.24 6.5-.3-1.2-.31-2.46-.19-3.68l.43-2.82Z"/><path fill="#251912" d="m61.19 82.74-.63 6.13-.43.5c-.93-2.16.25-4.4 1.06-6.63Z"/><path fill="#654D3D" d="M68.14 55.85c1.31 1.7.8 2.44.34 4.42l-.34-.27c-.37-1.26-.11-2.78 0-4.15Z"/><path fill="#F8B080" d="M92.52 121.9c1.6-2.52 5.02-6.41 7.06-8.7.14 10.44.4 20.64-.16 31.07 1.16-3.39 2.1-7.06 3.23-10.27 3.1 2.84 5.77 4.9 6.06 9.53.25 3.92-1.66 8.97-3.19 12.59-6.12 1.17-10.62 2-16.42 4.13l.57.56c3.85-1.2 10.64-2.25 14.75-2.97-5.58 10-13.48 16.26-23.25 21.97-8.09-3.64-25.95-15.47-33.67-20.47-1.79-1.02-2.9-1.65-4.52-2.9 5.94.67 10.88 1.64 16.72 2.97 3.87.96 5.67 1.5 9.26 3.2 2.02.96 5.54 4.27 6.43 4.46-4.06-5.72-11.61-8.01-17.96-9.63-9.77-2.2-15.7-.52-23.53-7.72-5.15-4.73-7.79-6.51-10.8-13.28 5.17-2.93 5.68-3.87 10-7.82.15 2.14.3 4.27.5 6.4 1.82-8.75 2.56-12.66 2.34-21.5a178.53 178.53 0 0 1 19.65 24.52c.56.85 4.93 10.25 5.2 11.11l-.26 1.63c1.04 2.01 3.08 5.56 4.55 7.2.45-.45.67-1.66.87-2.38-1.71-3.97-2.98-7.06-5.2-10.74-1.74-2.46-3.73-5.78-5.37-8.37 4.33 1.82 6.24 2.43 10.9 2.73 13.5.9 17.6-9.36 26.24-17.32Z"/><path fill="#BB7449" d="M35.94 113.51a178.53 178.53 0 0 1 19.65 24.53c.56.85 4.93 10.25 5.2 11.11l-.26 1.63a489.42 489.42 0 0 0-3.41-4.89c-3.75-1.9-8.64-5.94-12.87-8.47 6.91 7.74 7.78 13 13.18 20.02-9.77-2.2-15.7-.52-23.53-7.72-5.15-4.73-7.79-6.51-10.8-13.28 5.17-2.93 5.68-3.87 10-7.82.15 2.14.3 4.27.5 6.4 1.82-8.75 2.56-12.66 2.34-21.5Z"/><path fill="#452E1F" d="M57.12 145.9c-1.35-2.31-2.74-4.6-4.16-6.86 1.64.83 6.39 9.34 7.83 10.11l-.26 1.63a489.43 489.43 0 0 0-3.41-4.89Z"/><path fill="#BB7449" d="M55.38 136.5c4.33 1.8 6.24 2.42 10.9 2.72 13.5.9 17.6-9.36 26.24-17.32-.68 2.75-5.16 6.56-5.74 10.1-.04.25-.26.51-.41.7-.34.2-.92.5-1.16.75-1.53.47-5.65 5.42-7.62 6.44-3.26 1.7-13.52 4.6-16.84 4.97-1.74-2.46-3.73-5.78-5.37-8.37ZM42.98 156.44c5.94.67 10.88 1.64 16.72 2.97-5.46 1.3-9.12-1.66-12.2-.07-1.79-1.02-2.9-1.65-4.52-2.9Z"/><path fill="#251912" d="M85.2 133.45c.25-.26.83-.55 1.17-.75-1.9 4.3-5.68 12.8-8.93 15.96 1.5-3.05 6.82-12.8 7.77-15.2Z"/><path fill="#452E1F" d="m89.1 160.25.57.56-.29.12c-2.71 1.12-5.59 3.88-6.52 4.07l-.05-.44c1.17-1.73 4.37-3.45 6.29-4.31Z"/><path fill="#654D3D" d="M88.72 151.5c.2 1.24-3.19 8.5-3.87 10.06-.4-2.38 2.7-7.8 3.87-10.07Z"/><path fill="#BB7449" d="M26.08 30.03a30.49 30.49 0 0 1 3.27-6.58c1.82-3 6.64-6.09 7.17-8.71 1.64-.68 9.26-3.26 9.9-3.8l-1.35-.52.07-.4C48.51 8.15 52.41 7.27 55.58 6c13.9-5.6 23.38-2.35 35.9 4.47 1.63.88 4.55.7 5.91 2.2.77 1.63.6 5 .56 6.91l4.59.07c2.5 2.92 8.39 8.96 8.43 12.47.49 5.8-.18 9.26-.76 14.93l-.15.9a38.4 38.4 0 0 1-.54 4.3l-.96 4.66-.62 5.8c-.42-3.08-2.5-9.7-3.39-13-.48-.83-1.11-2.3-1.54-3.22-.08-.3-.13-2.17-.15-2.6.16-2.75-.32-5.95-.9-8.63l-.74-1.1.57-.7c1.72 1.83 3.34 2.84 5.88 2.97l.21-.22c-1.62-3.18-9.52-7.25-12-9.84-1.04-1.08 1.65-1.22 2.36-3.32-.67.02-2.95 1-3.94 1.3l-.38-.36c.36-.75.74-1.25.57-2.03-1.06 0-1.73 1.05-2.72 2l-.37-.15c.08-2.02.04-3.88.17-5.9-1.84-2.52-1.49-.18-3.02-2.44-1.48-2.19-2.47-4.65-4.95-5.92.04.5 2.43 4.86 3.12 7.17 2.5 5.1.01 6.2-4.11 8.07-.3-1.58-.16-3.1-1.01-4.15l-.87 1.3c-1.66-3.55-1.94-4.36-5.34-6.17-5.86-1.93-8.53-2.04-14.7-1.76 4.64 1.24 7.6 1.88 11.11 5.45 1.47 1.35 2.84 2.52 4.04 4.13.23 1.68.13 3.2 1.12 4.24l-1.9.26c-1.16.72-2.33 1.27-3.55 1.87-2.17-.7-4.85-1.8-7.01-2.64l-.25.74C59.02 26.89 51 19.94 46.82 16.9a29.47 29.47 0 0 0 4.6 5.9c-3.58-.5-6.73-.42-10.3-.74-1.58-.14-2.75-1.6-3.95-1.49.7 1.66 3.33 2.99 4.84 3.82l1 .6c-.23 2.32-5.13 4.91-7.13 6.18-1.4 1.07-2.62 1.9-3.76 3.26-.87.5-4.72 3.99-6.44 5.18.83-1.71 1.99-2.93 2.2-4.8-1.28-1.7-.84-1.85-.33-3.77-.48-.47-.9-.66-1.47-1.02Z"/><path fill="#050504" d="M71.8 19.47c1.47 1.35 2.84 2.52 4.04 4.13.23 1.68.13 3.2 1.12 4.24l-1.9.26c-1.16.72-2.33 1.27-3.55 1.87-2.17-.7-4.85-1.8-7.01-2.64-3.88-1.65-5.94-4.5-8.24-7.8 2.35.35 3.77.7 6.08 1.31 2.66.16 2.15-.72 4.82-1.1 1.66-.24 2.97-.24 4.64-.27Z"/><path fill="#324146" d="M71.8 19.47c1.47 1.35 2.84 2.52 4.04 4.13.23 1.68.13 3.2 1.12 4.24l-1.9.26c-.67-4.23-9.04-6.55-12.72-7.26 2.66.16 2.15-.72 4.82-1.1 1.66-.24 2.97-.24 4.64-.27Z"/><path fill="url(#c)" d="M101.96 35.27c1.8.73 3.94 4.76 4.66 6.57l.73.73c-.13 1.03.76 1.87 1.52 2.84l1.34 1.65-.15.9a38.18 38.18 0 0 1-.54 4.3l-.96 4.66-.62 5.81c-.42-3.09-2.5-9.7-3.39-13-.48-.84-1.11-2.3-1.54-3.23-.08-.3-.13-2.17-.15-2.6.16-2.75-.32-5.95-.9-8.63Z"/><path fill="#BB7449" d="m103 46.5.44-.9c.75.27.98.72 1.47 1.37 1.27 2.03 2.25 4.83 4.6 5.28l-.95 4.67-.62 5.81c-.42-3.09-2.5-9.7-3.39-13-.48-.84-1.11-2.3-1.54-3.23Z"/><path fill="#324146" d="M104.55 49.72c2.92 3 2.37 3.98 4 7.2l-.61 5.81c-.42-3.09-2.5-9.7-3.39-13Z"/><path fill="#A56842" d="M110.06 47.96c-1.3-1.08-4.77-5.29-5.44-6.82l.22-.3 1.78 1 .73.73c-.13 1.03.76 1.87 1.52 2.84l1.34 1.65-.15.9Z"/><path fill="#4E4B47" d="M102.86 43.9c.34.21 1.47.94 1.77 1.08.6.66 1.52 1.84 2.27 2.19-.41-.1-1.52-.16-2-.2-.48-.65-.7-1.1-1.46-1.38l-.43.91c-.08-.3-.13-2.17-.15-2.6Z"/><path fill="#A56842" d="M104.63 44.98c-.44-.77-1-1.46-.92-2.28 1.1.71 3.18 3.17 3.19 4.47-.75-.35-1.67-1.53-2.27-2.2Z"/><path fill="#324146" d="M82.07 18.72c-1.01-1.9-3.48-5.75-3.98-7.42 1.5-.05 4 4.25 5.4 4.76-.27-.87-.49-1.44-.85-2.28l.3-.47c2.27 1.18 2.53 2.6 3.78 3.42 2.5 5.1.01 6.2-4.11 8.07-.3-1.58-.16-3.1-1.01-4.15l-.87 1.3c-1.66-3.55-1.94-4.36-5.34-6.17-.6-1.68-1.99-1.13-3.55-3.25 2.26-.38 8.44 4.6 10.23 6.19ZM91.57 17.92c.75-1.92-.84-2.44-.52-3.98L92.19 15l1.43.27.2.4c1.12 2.36 1.16 6.06 1.64 6.5l.6-1.25c.77.23 1.77 1.44 2.18 2.14-.67.02-2.95 1-3.94 1.3l-.38-.36c.36-.75.74-1.25.57-2.03-1.06 0-1.73 1.05-2.72 2l-.37-.15c.08-2.02.04-3.88.17-5.9Z"/><path fill="#A56842" d="m92.2 15 1.42.27c-.07.7-.15 1.39-.24 2.08-.12.93-.27 2.18-1 2.73-.5-1.34-.26-3.55-.19-5.08Z"/><path fill="#324146" d="m42 24.4 1 .6c-.22 2.32-5.12 4.91-7.12 6.18l-1-1.3-.46-.96-1.03.3.11-.6c2.82-2.47 5.03-3.27 8.5-4.22Z"/><path fill="#A56842" d="M34.42 28.92c2.31-1.62 2.85-1.75 5.45-2.8a61.51 61.51 0 0 1-4.99 3.76l-.46-.96Z"/><path fill="#324146" d="M110.97 32.13c.49 5.8-.18 9.26-.76 14.93a117 117 0 0 1-1.34-1.65c-.76-.97-1.65-1.81-1.52-2.84.49.1.24.08.79-.13-.47-.75-.92-1.26-.93-2.11l1.03-.33.38.33.08-.43.3.45.41-.49-.01.32.1-.32-1-.73.8.67-.73-.92.5-1.16.5-.15.9 1.1c.6-.75.49-5.25.5-6.54Z"/><path fill="#4E4B47" d="M26.08 30.03c2.11-1.3 2.72-2.21 5.05-3.24-1.27 1.86-2.46 2.53-3.58 4.26-.48-.47-.9-.66-1.47-1.02Z"/><path fill="#324146" d="M28.61 55.34c-2.01-3.2-4.4-22.62-2.53-25.31.58.36.99.55 1.47 1.02-.51 1.92-.95 2.08.33 3.77-.21 1.87-1.37 3.09-2.2 4.8 1.72-1.2 5.57-4.68 6.44-5.18-1.19 2.31-2.67 2.76-3.17 4.47l.4.81c1.76-2.11 4.08-3.72 6.35-5.22l1 .03c1.07 5.54-7.46 9.47-8.2 13.14l.82.6c2.28-1.06 4.76-4.8 6.37-6.91l.2 4.8c-.39 1.61-.44 2.15-1.48 3.5-.88 1.8-1.37 2.79-2.5 4.44-.61 1.1-1.83 3.68-2.72 4.15-.34-1.1-.24-1.3-.06-2.49l-.52-.42Z"/><path fill="#BB7449" d="M35.7 34.5c-.23 2.66-5.6 8.4-7.85 9.16-.08-1.5 1.41-2.6 1.5-3.94 1.76-2.11 4.08-3.72 6.35-5.22Z"/><path fill="#0C161A" d="M28.61 55.34c1.3-1.67 1.38-1.83 3.3-1.24-.61 1.1-1.83 3.68-2.72 4.15-.34-1.1-.24-1.3-.06-2.49l-.52-.42Z"/><path fill="#A56842" d="M34.4 49.66c-1.01.66-1.24.81-2.36 1.25l-.18-.36c.9-1.43 2.78-3.14 4.03-4.38-.39 1.6-.44 2.14-1.48 3.5Z"/><path fill="#BB7449" d="m22.15 64.9 2.38 3.72.46 1.23c1.34.36.87.16 1.92 1.29 1.7 5.45-6.38 3.95 2.96 14.57-2.41-5.52-2.13-3.85.5-8.47l-.25-2.2.75-.03c.72 3.02 2.33 11.68 1.06 14.33l.03.3c.37 1.13.39.6.06 1.63-.82.36-1.25.72-2.1.56-1.29-.25-2.3-1.44-3-2.43-5.97-8.36-6.35-14.77-4.77-24.5Z"/><path fill="#050504" d="M24.98 83.26c2.03 1.53 6.43 4.04 6.95 6.08l.03.3c-2.88-1.3-5.24-3.8-6.98-6.38ZM24.53 68.62l.46 1.23c-.3 2.42-.56 5.02-1.16 7.36l-.24-.26c-.28-3.58 0-4.83.94-8.33Z"/><path fill="#F8B080" d="M110.04 73.39c.68-1.42 1.47-2.8 2.23-4.18.17 1.66.26 3.25.74 4.85l.69.31 1.08.34c-.2 4.13-3.32 16.42-7.94 17.31-1.26-.39-1-.1-1.61-1-.31-2.36.56-9.52.81-12.24l1.35-.7c1.34 2.17.45 4.06.08 6.82l.31.15c2.2-2.3 2.5-3.4 3.63-6.41l-1.37-5.25ZM106.58 75.17c.23-4.38.97-11.98 5.94-13.65l.9.22c1.43 3.05-2.18 5.52-3.58 8.08-1 1.82-1.58 3.4-2.26 5.34h-1ZM29.37 72.86c-1.46-4.36-6.4-8.24-6.1-11.16 1.1-.76.64-.55 2.15-.54 2.91 1.97 4.97 6.24 4.9 9.76-.28.61-.6 1.38-.95 1.94Z"/><path fill="#E29D6F" d="M113.7 74.37c.22-2.42.09-6 .56-7.96.63 2.03.57 6.13.52 8.3l-1.08-.34ZM106.58 75.17l1-.01c-.24 1.25-.56 1.85-.19 2.93l-1.34.69c.14-1.29.3-2.34.53-3.61Z"/><path fill="#A56842" d="M101.22 34.18a35.66 35.66 0 0 1-1.82-2.6l.2-.44c1.05.58 1.47 1.36 2.19 2.33l-.57.7Z"/><path fill="#E29D6F" d="M29.37 72.86c.35-.56.67-1.33.96-1.94.07 1.56.04 2.59.54 4.1l-.75.02c-.25-.54-.55-1.58-.75-2.18Z"/></g><defs><linearGradient id="b" x1="79.76" x2="77.43" y1="64.37" y2="62.32" gradientUnits="userSpaceOnUse"><stop stop-color="#D38B60"/><stop offset="1" stop-color="#B66E43"/></linearGradient><linearGradient id="c" x1="109.76" x2="103.14" y1="50.11" y2="42.8" gradientUnits="userSpaceOnUse"><stop stop-color="#314145"/><stop offset="1" stop-color="#4B4C48"/></linearGradient><clipPath id="a"><path fill="#fff" d="M0 0h209v270H0z"/></clipPath></defs></svg>