<svg width="370" height="658" viewBox="0 0 370 658" fill="none" xmlns="http://www.w3.org/2000/svg">
<g clip-path="url(#clip0_1682_8842)">
<path d="M106.845 655.223C-0.29679 666.808 -7.43955 639.776 3.98886 617.893C13.0242 600.593 118.606 590.248 172.101 587.109C378.784 611.675 213.986 643.638 106.845 655.223Z" fill="#262629" fill-opacity="0.5"/>
<path d="M163.054 0.705726C163.443 0.651776 163.833 0.608326 164.224 0.575326C171.906 -0.0674739 175.735 3.03918 181.202 7.66008L181.513 7.43403C181.411 6.50443 181.279 5.77618 181.394 4.84453C185.039 5.57373 186.386 10.5525 186.958 13.7329C187.326 15.7795 186.785 17.4534 186.167 19.3902C188.087 21.7075 190.968 25.0922 191.154 28.1537C190.663 28.2632 190.501 28.1567 190.028 27.9907L189.862 27.9302C189.658 28.6662 189.722 31.7182 189.552 32.9387C189.172 35.6737 188.587 38.0662 187.96 40.7432C188.521 42.5162 189.457 44.1732 190.008 45.9497C191.204 49.8057 188.492 53.0797 188.192 56.7942C187.856 60.9372 190.098 64.9097 189.889 69.1047C189.751 71.8697 181.314 106.166 180.353 107.706C179.073 109.759 176.288 110.325 174.124 110.887L173.765 114.627C182.592 118.377 190.505 123.308 198.878 127.864C200.59 128.796 205.598 129.618 207.708 129.996C216.848 131.635 225.162 135.505 231.213 142.72C241.1 154.65 244.225 168.361 243.178 183.515C252.4 193.912 255.673 201.007 257.272 214.526C262.373 212.456 272.445 209.944 276.096 207.726C283.105 203.467 288.151 196.454 295.75 191.818C296.014 190.133 296.142 188.141 296.373 186.562C297.767 177.041 304.301 172.552 310.449 166.271C313.594 161.889 316.302 156.117 320.352 152.508C322.366 150.713 326.071 152.312 327.342 154.816C331.133 162.286 323.508 167.135 321.092 173.297C320.945 173.672 321.058 173.628 321.254 173.981C325.633 174.165 338.243 170.76 342.51 168.971C347.478 166.925 353.222 162.762 358.674 162.545C360.175 162.485 368.211 165.188 368.952 167.121C370.408 170.92 368.655 172.29 366.132 174.836C365.295 176.26 364.94 177.155 363.846 178.512C359.927 183.374 355.533 188.024 350.949 192.127C347.256 195.433 346.18 197.891 341.448 200.296C340.056 201.003 337.932 204.03 336.163 204.666C333.417 205.978 330.634 206.854 327.782 207.875C323.003 209.548 318.255 211.31 313.541 213.158C311.408 220.039 304.997 225.09 300.458 230.644C293.201 239.525 286.761 249.617 277.887 256.959C273.569 261.362 264.844 263.546 260.438 266.329C249.962 272.945 247.637 270.808 238.193 263.33C232.611 258.91 228.531 251.586 223.436 246.409C220.991 243.924 218.346 240.047 216.128 237.058C214.906 241.258 212.405 248.79 212.184 253.066C211.288 270.337 213.721 288.071 216.435 305.113C217.09 309.229 217.944 316.403 219.16 320.125C224.317 335.917 229.043 351.284 230.508 367.949C231.782 382.499 230.978 397.157 228.121 411.48C227.126 416.466 225.147 422.016 224.419 426.824C223.813 430.83 225.101 437.247 224.757 441.672C224.805 443.872 223.429 447.253 223.651 449.308C224.947 461.286 229.022 472.525 230.011 484.67C231.475 502.63 226.501 519.39 226.074 537.235C226.022 539.415 227.096 542.24 227.15 544.485C227.181 546.745 226.056 549.26 226.279 551.56C227.178 558.73 230.392 559.865 228.507 567.33C232.937 573.43 243.791 586.255 250.325 589.865C255.337 592.63 260.021 594.105 264.976 598.155C269.489 601.845 269.575 606.65 272.474 609.3C272.933 611.71 274.189 616.145 272.142 617.905C267.736 621.7 257.498 622.975 251.938 623.185C240.371 623.615 228.113 623.545 217.407 618.825C215.032 617.745 210.89 613.88 209.002 612.155C203.466 612.825 202.202 614.185 196.377 612.87C193.797 612.285 180.406 609.065 179.997 606.36C179.303 598.84 179.024 588.275 180.669 580.96C182.218 574.08 185.763 573.36 183.563 565.835C183.026 564 186.033 557.06 183.868 553.45C181.545 549.58 182.943 544.165 183.457 540.21C183.6 536.295 182.559 527.77 181.46 523.95C178.626 514.1 171.44 505.58 170.835 494.785C169.871 480.085 174.523 466.191 176.249 451.715C174.707 448.299 173.212 445.752 172.158 442.044C169.827 433.841 169.76 424.259 168.002 416.028C166.695 409.909 163.696 401.611 161.738 395.524C159.321 388.573 158.236 382.676 156.138 376.183C153.061 387.878 149.694 399.34 144.8 410.425C141.382 418.166 137.213 425.881 133.903 433.65C131.63 438.984 131.077 445.084 128.701 450.712C127.822 454.381 121.279 461.539 120.816 464.48C118.832 477.095 121.17 490.99 116.836 503.38C114.5 510.06 110.742 515.32 107.426 521.285C104.816 526.025 102.82 531.08 101.487 536.32C100.237 541.285 100.46 543.99 99.8523 548.85C99.5733 551.08 97.8788 553.4 97.6208 556.87C97.2333 562.09 97.6158 567.495 96.9668 572.595C96.6318 575.235 94.2098 574.17 94.2353 578.37C94.2558 581.765 95.2468 584.41 95.5318 587.615C96.1268 594.305 97.3188 603.11 96.4858 609.685C96.2093 611.865 92.9618 613.365 91.1058 614.455C91.2758 617.08 91.7948 621.535 91.0263 623.925C90.3618 625.985 87.5678 627.835 85.6363 628.75C74.2203 634.145 57.6893 633.625 45.8198 629.995C43.6868 629.345 40.0831 627.495 39.097 625.36C38.3745 623.795 38.8978 620.525 38.8807 618.905C38.7513 606.615 45.7018 602.545 51.0183 593C51.5248 592.09 53.7038 585.575 54.2958 583.845C55.4363 580.52 56.8558 577.59 58.1148 574.35C57.7663 573.965 57.4368 573.56 57.1288 573.14C54.8293 570.035 55.3603 564.625 55.1783 560.81C55.0233 557.555 57.4873 552.89 58.0078 549.47C58.4328 546.675 57.7803 543.625 58.0558 541.065C58.3858 537.99 59.5833 534.615 59.7788 531.425C60.7668 513.41 56.0413 497.055 61.2603 479.205C64.7713 467.198 69.8143 458.977 76.0528 448.357C77.3528 446.144 77.8218 440.729 78.5443 437.987C79.4208 434.658 80.2343 430.924 80.9768 427.536C82.0383 420.679 79.8618 412.653 79.3893 405.566C78.7513 395.282 79.0023 384.963 80.1393 374.722C81.3743 363.296 84.5553 351.593 88.0118 340.649C89.7798 335.051 91.8533 328.841 93.3293 323.203C94.1103 319.28 94.1808 315.085 94.6673 311.128C95.9748 300.501 98.1703 289.952 98.9438 279.267C98.9078 277.909 99.0463 276.43 98.8823 275.081C98.1948 269.428 97.9978 258.493 96.5238 253.494C95.8048 251.055 89.2918 244.09 87.5498 241.569C84.8553 237.67 81.6233 233.248 78.8493 229.482C76.8258 233.072 75.4833 236.248 73.0823 239.858C70.7378 243.383 68.2053 246.293 65.8688 249.702C65.3498 258.42 67.1023 267.93 65.7803 276.577C65.1058 280.986 63.0173 288.234 61.3008 292.297C54.9313 307.375 55.3153 314.083 58.4413 330.045C69.1898 335.081 71.8643 333.541 76.4783 345.869C77.2273 347.869 78.8568 350.27 79.6893 352.163C81.2648 355.745 78.8513 363.097 77.5383 366.736C75.9763 371.067 73.1818 370.352 72.0773 371.747C71.1583 373.294 68.8173 378.32 66.5583 378.462C63.0308 378.684 60.3038 379.889 56.9383 380.837C52.0728 382.208 43.9793 382.642 39.399 380.226C35.9691 378.417 29.2823 375.606 27.9951 371.445C26.0826 363.747 25.4492 355.562 24.2846 347.684C23.4004 341.703 20.7983 336.925 20.8088 330.876C20.8388 313.59 14.9282 297.608 13.3342 280.636C12.7784 274.718 13.3837 267.757 14.2966 261.885C15.0126 257.492 15.5393 252.718 16.8437 248.464C18.0626 244.767 21.7839 239.352 22.3801 235.665C23.9482 225.966 23.6013 216.189 25.6526 206.457C26.7438 201.323 28.3726 196.317 30.5121 191.523C34.1148 183.288 35.4584 182.416 34.6793 173.37C34.2101 167.921 36.5592 159.019 38.8187 153.996C46.0513 137.916 61.0533 131.356 77.6288 128.799C79.1888 128.542 88.9633 122.457 91.7393 121.039C95.9238 118.92 100.141 116.865 104.389 114.877C106.799 113.773 111.777 111.883 113.766 110.355C119.886 105.276 118.694 95.5272 119.583 88.5527C120.731 79.5447 115.34 74.7372 111.728 67.5992C109.494 63.1837 110.333 55.7362 112.361 51.0602C110.852 45.9982 110.303 38.5127 109.369 33.0942C108.189 26.2492 112.306 22.7745 116.213 17.811C115.969 17.2982 115.932 17.219 115.791 16.6707C118.413 12.5998 124.425 8.49488 128.718 6.34108C129.691 5.85323 131.773 5.32893 132.33 4.51703L131.307 3.27938L131.378 2.80278C137.041 1.84968 145.249 2.12633 151.072 1.82773C155.407 1.60543 158.742 1.23423 163.054 0.705726Z" fill="#040404"/>
<path d="M109.465 116.007C111.838 121.073 117.506 125.687 121.753 129.467C133.418 137.804 150.14 148.504 163.19 154.403C170.372 149.941 176.635 142.003 178.881 133.817C180.324 128.556 179.809 125.315 178.261 120.342C180.327 121.278 181.582 121.816 183.489 123.084L184.266 123.41C191.715 127.367 199 131.63 206.456 135.468C205.342 134.376 204.011 132.992 202.794 132.064C215.741 134.622 223.594 137.251 231.319 148.663C238.057 158.618 241.461 170.332 239.773 182.422C237.975 180.967 236.96 180.099 234.911 178.973C237.385 182.021 240.004 184.506 242.418 187.454C250.045 196.767 252.813 204.816 254.564 216.474C248.216 221.213 241.359 227.647 237.492 234.648C240.056 231.639 242.766 228.758 245.613 226.015C244.559 228.177 243.414 230.391 242.58 232.64L241.527 232.86C240.741 233.818 240.658 233.99 240.17 235.11C237.231 238.928 236.911 243.451 236.742 248.072C233.217 242.581 231.141 236.911 227.897 231.306C235.958 232.466 237.569 228.563 242.866 223.699C239.649 223.311 234.177 222.945 231.845 220.865C224.821 214.601 222.835 207.237 221.465 198.725C223.796 193.173 226.148 179.293 226.34 173.177L225.726 170.201L224.742 177.891C223.344 171.425 222.133 163.523 218.254 158.115C220.873 166.873 223.803 179.085 221.151 188.166C219.592 194.927 216.824 202.453 210.784 206.581C210.231 206.959 207.731 208.081 206.845 208.544C210.809 208.278 212.043 208.403 215.476 206.251C217.92 225.776 213.458 231.35 209.269 249.657C207.937 255.475 209.332 275.603 209.993 281.996L210.171 282.769C210.218 284.143 210.469 284.695 209.891 285.761C204.087 289.709 189.297 293.296 182.327 294.821C181.94 294.906 181.269 295.032 181.144 295.35C189.014 295.431 203.404 290.377 210.496 286.645C210.935 290.757 211.318 295.169 212.051 299.216C180.42 313.989 148.204 311.737 115.74 301.591C110.798 299.845 105.608 298.436 100.56 296.627C100.931 292.45 101.812 287.861 101.953 283.718L102.36 282.002C102.769 275.481 100.026 253.988 98.5961 247.312L97.9786 247.656L97.6206 247.759C93.5351 244.924 83.5981 229.908 83.0286 224.449C82.3961 218.387 88.8341 205.976 92.5571 201.529C103.417 204.722 111.158 207.112 122.334 209.216L125.26 209.199L125.712 209.253C127.989 207.903 133.915 207.799 135.768 206.639L135.883 206.112C134.41 204.604 121 200.301 117.595 198.765C104.06 192.658 93.6891 183.57 84.1416 172.276C78.1476 176.504 61.7271 182.697 54.3436 185.056C49.2046 181.771 45.0011 172.872 43.0086 167.217C42.1006 164.642 41.5996 161.843 40.5938 159.322C47.1916 140.355 66.3421 130.912 85.6281 131.75C84.7461 131.468 82.4386 130.854 82.0771 130.201C83.8426 128.587 99.6796 121.106 102.869 119.455L103.425 119.071C105.758 118.089 107.259 117.248 109.465 116.007Z" fill="#1A7AA2"/>
<path d="M92.5572 201.529C103.417 204.722 111.158 207.112 122.334 209.216C117.399 209.483 109.166 212.082 105.672 215.622C107.158 217.306 116.665 226.975 116.761 227.223C115.926 227.783 115.748 227.583 114.595 227.559L114.029 227.185L108.785 224.6C107.384 226.219 105.098 225.721 104.681 227.667C106.29 231.378 119.003 243.512 123.241 245.843C127.256 243.581 136.612 236 140.312 235.611C139.275 236.431 137.378 238.024 136.332 238.679L136.574 239.275C138.829 237.682 141.209 236.277 143.692 235.072C141.79 237.554 129.864 245.428 130.519 247.717C129.041 248.603 126.079 250.077 125.351 251.503C123.891 252.4 122.205 253.058 120.622 253.734C117.073 252.506 113.5 251.349 109.905 250.266C112.219 262.686 114.287 270.521 115.659 283.274C117.477 283.987 120.783 285.184 122.33 286.141C120.537 285.804 117.739 284.892 116.017 284.186C115.708 285.403 115.738 285.748 115.762 286.955C111.769 285.796 106.241 283.565 102.36 282.002C102.769 275.481 100.026 253.988 98.5962 247.312L97.9787 247.656L97.6207 247.759C93.5352 244.924 83.5982 229.908 83.0287 224.449C82.3962 218.387 88.8342 205.976 92.5572 201.529Z" fill="#175774"/>
<path d="M96.3545 209.841C98.8685 213.128 100.005 214.817 102.994 217.696C105.156 219.778 112.803 225.39 114.029 227.185L108.785 224.6C102.701 220.653 99.266 216.517 96.3545 209.841Z" fill="#12181B"/>
<path d="M109.08 281.017C111.075 281.589 113.661 282.571 115.66 283.274C117.478 283.987 120.784 285.185 122.331 286.141C120.538 285.804 117.74 284.893 116.018 284.186C113.265 283.283 111.499 282.575 109.08 281.017Z" fill="#0B212A"/>
<path d="M97.9785 247.656C97.539 246.34 96.835 242.76 96.558 241.35L97.2635 240.929L97.1335 240.646L96.5235 240.795L96.559 240.353L96.8055 240.217L96.507 240.417L97.049 240.615L96.463 240.837L96.459 241.03L97.2305 241.078C97.841 243.228 98.1825 245.124 98.596 247.312L97.9785 247.656Z" fill="#0B212A"/>
<path d="M136.574 239.275C135.983 240.047 133.735 241.829 132.686 242.084L132.652 241.955C133.416 240.686 135.105 239.597 136.332 238.679L136.574 239.275Z" fill="#114054"/>
<path d="M107.44 238.343C105.445 236.845 97.1281 229.425 97.1221 227.361L97.6631 227.161C98.4856 227.535 105.253 233.395 105.938 234.599C106.367 235.58 107.22 237.385 107.44 238.343Z" fill="#040404"/>
<path d="M105.938 234.599C107.61 235.507 112.171 240.055 113.328 241.681L113.136 241.908C111.452 241.204 108.711 239.639 107.439 238.343C107.219 237.385 106.366 235.58 105.938 234.599Z" fill="#12181B"/>
<path d="M101.954 283.718C103.791 283.188 113.351 287.654 116.056 288.394C115.984 292.794 115.879 297.193 115.741 301.591C110.799 299.845 105.609 298.436 100.561 296.627C100.932 292.45 101.813 287.861 101.954 283.718Z" fill="#175774"/>
<path d="M195.468 206.999C207.517 200.594 212.653 200.389 221.152 188.167C219.592 194.928 216.824 202.453 210.785 206.581C210.232 206.959 207.732 208.082 206.845 208.544L206.413 208.785L206.792 207.965C206.327 207.487 202.629 207.916 201.434 207.85C199.137 207.725 197.708 207.476 195.468 206.999Z" fill="#175774"/>
<path d="M109.465 116.007C111.838 121.073 117.506 125.687 121.753 129.467C119.193 129.189 115.322 128.986 112.781 129.265C108.889 126.428 106.13 122.991 103.425 119.071C105.758 118.089 107.259 117.248 109.465 116.007Z" fill="#175774"/>
<path d="M102.36 282.002C106.241 283.565 111.769 285.796 115.762 286.955C130.868 291.445 144.048 292.65 159.512 293.739C146.485 295.566 128.706 292.447 116.055 288.394C113.35 287.654 103.79 283.188 101.953 283.718L102.36 282.002Z" fill="url(#paint0_linear_1682_8842)"/>
<path d="M102.869 119.456L103.425 119.071C106.131 122.991 108.89 126.428 112.782 129.265C116.551 132.194 121.105 134.883 125.028 137.677C132.902 143.284 140.67 149.028 149.616 152.847C151.421 153.618 153.652 154.464 155.29 155.438C155.14 155.415 154.989 155.393 154.84 155.366C145.683 153.693 116.064 133.997 108.945 127.359C106.478 125.059 104.792 122.192 102.869 119.456Z" fill="#0B212A"/>
<path d="M183.489 123.084L184.266 123.41C184.457 125.871 184.941 127.248 184.967 130.154C185.052 139.957 178.609 148.375 171.998 155.052L171.866 154.811C172.465 153.027 177.202 148.212 178.723 145.923C184.138 137.77 185.137 132.617 183.489 123.084Z" fill="#0B212A"/>
<path d="M140.313 235.611C145.177 232.407 150.494 229.949 156.086 228.32C152.113 230.598 147.767 232.782 143.693 235.072C141.21 236.277 138.829 237.682 136.575 239.275L136.332 238.679C137.379 238.024 139.276 236.431 140.313 235.611Z" fill="#12181B"/>
<path d="M130.52 247.718L130.964 247.696C130.406 248.924 126.626 250.952 125.352 251.504C126.08 250.078 129.042 248.603 130.52 247.718Z" fill="#0B212A"/>
<path d="M210.171 282.77C209.418 282.842 208.141 284.057 205.966 284.469C207.56 283.324 208.248 282.862 209.993 281.996L210.171 282.77Z" fill="#175774"/>
<path d="M225.727 170.201L225.766 169.146L226.049 169.089C226.375 170.89 226.425 171.359 226.341 173.177L225.727 170.201Z" fill="#114054"/>
<path d="M162.935 159.843C171.756 158.582 183.596 161.362 190.606 166.932C189.461 169.75 184.49 177.56 182.763 180.396C178.772 177.303 175.242 174.617 170.034 173.931C161.634 172.824 154.815 177.664 153.896 186.26C152.943 195.177 157.979 201.648 167.057 202.278C174.304 202.78 178.309 200.255 183.588 195.788C184.645 196.869 186.047 198.956 186.97 200.243C188.747 202.821 190.683 205.515 192.197 208.238C179.148 219.337 161.243 221.125 147.099 210.682C134.96 201.72 131.729 182.587 141.259 170.617C146.74 163.733 154.406 160.873 162.935 159.843Z" fill="#040404"/>
<path d="M164.797 161.493C173.804 160.914 180.728 162.813 188.375 167.427C187.02 170.158 183.96 175.03 182.352 177.896C178.026 174.777 175.693 172.967 170.114 172.212C148.144 169.236 144.985 202.589 167.033 204.056C173.913 204.514 178.224 202.513 183.38 198.155L185.192 200.577L190.092 207.781C184.73 212.271 178.134 215.032 171.172 215.702C162.826 216.464 154.051 214.113 147.585 208.69C141.796 203.919 138.181 197.012 137.56 189.537C136.024 171.961 148.932 162.829 164.797 161.493Z" fill="white"/>
<path d="M91.8105 158.612C92.2575 156.604 92.7985 154.618 93.4315 152.661C94.032 150.783 96.5735 143.513 97.9965 142.78C97.6115 143.891 97.3595 144.052 97.566 145.104C98.2335 144.799 98.4115 144.319 98.7975 143.676C99.4615 147.217 93.8375 155.561 91.8105 158.612Z" fill="#175774"/>
<path d="M202.162 140.259C207.068 140.768 212.679 147.964 213.819 152.629C212.139 151.433 204.326 142.49 202.162 140.259Z" fill="#175774"/>
<path d="M135.273 277.826L135.934 276.589C138.622 278.072 139.491 286.93 139.922 290.012C139.309 288.775 136.5 283.497 136.271 282.408L136.492 281.954C136.492 280.895 135.668 278.921 135.273 277.826Z" fill="#175774"/>
<path d="M81.6933 162.945C80.7388 154.579 78.1568 146.739 74.4678 139.213L74.6283 139.218C75.1578 140.005 74.9478 139.695 75.6923 140.203C76.7403 140.92 76.8843 142.465 77.3718 143.563C79.9508 149.373 81.7893 155.999 82.2953 162.337L81.6933 162.945Z" fill="#12181B"/>
<path d="M129.804 256.36C130.596 257.172 131.097 258.101 131.858 258.943C134.404 261.757 138.143 263.664 140.9 266.03L140.787 266.282L139.072 265.54C138.219 264.837 137.921 264.469 136.792 264.463L136.831 264.627C132.454 263.973 130.407 260.462 129.804 256.36Z" fill="#175774"/>
<path d="M170.714 244.449C172.239 249.898 169.569 257.589 168.484 263.019L168.374 263.062C167.981 259.631 170.118 248.775 170.714 244.449Z" fill="#12181B"/>
<path d="M186.693 230.246C191.211 233.661 194.843 237.549 196.837 242.964C194.122 239.482 189.708 233.481 186.277 230.904L186.693 230.246Z" fill="#12181B"/>
<path d="M75.9998 134.259L75.9338 134.413C75.4008 134.846 58.8748 140.353 56.9668 141.029L56.9673 140.822C59.6933 138.627 72.3028 135.093 75.9998 134.259Z" fill="#0B212A"/>
<path d="M94.242 132.029C95.5765 131.729 101.327 132.847 102.793 133.119C101.251 133.352 95.9735 133.772 94.647 133.273C91.796 132.621 90.1245 132.947 87.25 133.275C88.7855 131.92 92.252 132.043 94.242 132.029Z" fill="#040404"/>
<path d="M228.262 178.363C229.714 179.594 231.91 180.675 233.128 182.083C232.361 182.173 231.558 181.656 230.829 181.3L229.248 181.062C228.167 181.354 226.771 182.924 225.732 183.809C226.453 182.023 227.421 180.114 228.262 178.363Z" fill="#175774"/>
<path d="M173.416 224.037L173.614 224.391C171.874 229.562 171.14 231.004 167.593 234.964L167.3 234.708C168.088 232.595 172.082 226.53 173.416 224.037Z" fill="#0B212A"/>
<path d="M197.03 253.528L197.285 253.93C196.893 258.296 195.055 261.699 191.941 264.713L191.74 264.462C194.559 260.661 195.357 257.922 197.03 253.528Z" fill="#0B212A"/>
<path d="M187.511 290.475C188.035 290.467 188.558 290.463 189.081 290.437L188.952 290.672C184.579 291.138 180.022 292.378 175.529 292.585C174.374 292.737 173.228 292.975 172.095 292.751C172.844 292.083 185.6 290.682 187.511 290.475Z" fill="#114054"/>
<path d="M146.838 264.443C148.184 264.378 152.06 265.002 153.751 265.119C157.544 265.379 160.904 265.357 164.703 265.212C161.15 266.741 150.569 265.949 146.838 264.443Z" fill="#175774"/>
<path d="M209.796 234.473C210.023 235.986 206.871 242.692 205.613 243.867C205.593 243.647 205.33 242.611 205.332 242.605C206.276 240.319 208.627 236.463 209.796 234.473Z" fill="#12181B"/>
<path d="M213.3 216.712C213.792 218.789 209.55 226.339 207.924 227.63L207.67 227.242C210.075 223.579 211.475 220.754 213.3 216.712Z" fill="#114054"/>
<path d="M169.075 273.332C169.434 275.957 168.665 282.875 167.662 285.36C167.517 282.795 168.304 275.762 169.075 273.332Z" fill="#0B212A"/>
<path d="M132.327 270.092C133.702 272.899 134.277 274.817 135.274 277.826C135.669 278.921 136.492 280.895 136.492 281.954L136.271 282.408C134.654 278.406 133.335 274.289 132.327 270.092Z" fill="#0B212A"/>
<path d="M176.908 265.207C178.639 265.043 186.893 265.176 188.277 265.859C185.551 266.2 179.305 266.359 176.908 265.207Z" fill="#0B212A"/>
<path d="M198.762 134.646L198.967 134.826C196.985 136.222 192.936 135.929 190.594 135.736L190.2 135.4C190.665 135.031 197.703 134.718 198.762 134.646Z" fill="#12181B"/>
<path d="M195.966 273.153C196.444 275.481 194.577 281.382 193.59 283.589C193.577 280.73 195.102 275.86 195.966 273.153Z" fill="#0B212A"/>
<path d="M179.309 226.695C181.105 227.018 182.469 227.347 184.231 227.812C184.955 228.712 185.84 229.465 186.694 230.246L186.278 230.903C183.836 229.01 182.039 228.146 179.309 226.695Z" fill="#114054"/>
<path d="M82.2954 162.337C82.5759 163.896 82.6729 164.275 82.5179 165.844L82.2404 166.014C81.7984 164.817 81.7999 164.21 81.6934 162.945L82.2954 162.337Z" fill="#114054"/>
<path d="M100.103 298.053C103.447 299.498 108.764 300.981 112.376 302.269C133.862 309.932 150.344 311.585 172.836 311.296C173.379 317.51 173.266 324.319 173.196 330.565C173.073 341.501 171.215 352.55 159.571 356.64C160.52 354.705 160.923 353.901 161.497 351.774C156.519 358.859 156.19 362.55 154.234 370.846C153.116 375.729 151.827 380.572 150.37 385.366C146.451 397.975 142.973 407.219 137.075 419.067C138.187 413.301 140.079 403.371 139.583 397.77C139.562 397.788 136.363 415.368 135.634 417.599C132.686 426.618 129.507 434.712 120.6 439.463C119.02 440.306 117.582 440.771 116.215 441.826L116.448 442.446C117.795 443.541 119.076 444.018 120.648 444.707C124.256 442.489 126.337 440.06 129.201 437.019C128.651 439.621 127.712 444.234 126.625 446.668C121.2 458.807 112.261 471.088 103.228 480.665C108.357 477.35 112.825 472.319 117.055 467.909C117.128 479.865 117.033 490.135 113.769 501.7C111.167 510.08 107.145 514.145 103.289 521.595C101.303 526.605 97.8821 534.3 97.3151 539.6C96.6681 545.65 95.4431 550.325 94.1856 556.1C93.3016 560.165 93.4071 567.82 93.2486 572.17C79.8761 571.505 72.5661 568.68 59.1026 569.985C57.5246 559.93 58.7491 558.98 61.1821 549.305C61.5436 547.87 61.0941 543.37 61.3466 541.585C61.8606 537.95 62.8231 534.62 63.1231 530.935C64.1391 518.46 61.2386 506.4 61.9931 494.08C62.3491 488.27 64.0651 481.695 65.6456 476.18C68.0826 466.693 75.3291 458.144 79.0931 449.658C80.9691 445.429 83.6951 430.334 84.2171 425.595C85.1946 427.838 87.5311 438.946 87.2956 438.652C88.3041 434.998 83.7111 411.248 83.0936 404.889C82.4776 398.159 82.3901 391.391 82.8311 384.648C83.5666 371.348 85.9331 358.189 89.8776 345.466C91.5466 339.911 94.1466 333.353 95.4621 327.886C97.6846 318.648 98.6256 307.589 100.103 298.053Z" fill="#344345"/>
<path d="M114.606 448.403C114.678 448.734 114.649 448.985 114.546 449.31C112.085 457.053 106.426 464.604 99.6088 468.821L99.5303 468.5C100.02 467.453 105.635 460.624 106.774 459.174C109.506 455.674 112.118 452.081 114.606 448.403Z" fill="#040404"/>
<path d="M109.385 323.44C110.74 323.443 114.272 324.313 115.671 324.712C125.167 327.419 134.217 330.536 142.044 336.646C140.905 336.401 139.638 335.76 138.596 335.207C129.211 330.225 119.311 327.139 109.385 323.44Z" fill="#040404"/>
<path d="M90.2613 437.55C90.4583 438.433 90.6293 444.174 90.5088 445.449C89.9863 450.981 91.9353 458.179 91.6873 463.275L91.3643 463.191C88.9283 456.012 87.1728 444.682 90.2613 437.55Z" fill="#040404"/>
<path d="M120.234 333.707C121.286 333.919 122.322 334.201 123.336 334.554C130.038 336.841 147.532 344.214 150.868 351.005C143.962 345.974 138.859 342.47 131.074 338.634C127.83 337.035 122.969 335.27 120.234 333.707Z" fill="#040404"/>
<path d="M73.8536 557.54C78.8246 557.685 82.2326 559.685 86.1796 562.505C83.0851 561.41 80.6731 560.45 77.3986 560.06C71.2841 559.59 68.5266 559.795 62.4941 560.355C66.1631 558.82 69.8861 557.805 73.8536 557.54Z" fill="#040404"/>
<path d="M163.945 312.202C165.497 314.832 164.894 342.826 163.837 346.345C163.955 346.616 163.678 314.223 163.945 312.202Z" fill="#040404"/>
<path d="M135.423 349.119C140.091 348.902 151.404 353.965 154.768 357.354C152.873 357.079 138.558 350.373 135.423 349.119Z" fill="#040404"/>
<path d="M97.518 489.4C97.733 490.98 94.884 501.035 94.699 504.19C94.5675 506.43 94.558 515.805 94.2155 516.955C94.138 516.805 94.0605 516.655 93.9825 516.505C93.268 507.43 94.297 497.9 97.518 489.4Z" fill="#12181B"/>
<path d="M108.48 306.707C110.211 307.046 124.8 312.798 127.584 313.877C123.435 313.905 112.122 309.063 108.48 306.707Z" fill="#040404"/>
<path d="M103.525 310.113C103.432 311.802 98.967 326.123 98.172 328.137C97.6545 325.346 101.73 312.353 103.525 310.113Z" fill="#040404"/>
<path d="M109.489 304.438C112.262 304.589 123.433 309.156 125.985 311.043C121.594 310.019 113.479 306.597 109.489 304.438Z" fill="#040404"/>
<path d="M106.254 425.754C106.793 426.183 112.332 437.668 112.859 439.079C109.82 437.21 107.1 429.254 106.254 425.754Z" fill="#040404"/>
<path d="M68.2705 541.115C76.0815 542.53 75.4445 542.75 83.063 541.39L83.288 541.755C79.855 543.255 70.794 544.115 68.2705 541.115Z" fill="#040404"/>
<path d="M103.985 424.121C105.528 425.712 107.965 434.23 108.477 436.762C106.398 435.446 104.394 426.67 103.985 424.121Z" fill="#040404"/>
<path d="M147.709 318.316C149.384 318.344 161.533 320.38 162.947 321.025C160.057 321.585 150.488 319.482 147.709 318.316Z" fill="#12181B"/>
<path d="M82.5664 548.81C83.8069 549.425 88.1509 555.07 89.1754 556.475C86.7719 555.55 83.7449 551.1 82.5664 548.81Z" fill="#12181B"/>
<path d="M98.7282 421.236C99.0002 422.381 94.1102 427.091 93.0517 428.196C92.6147 426.722 97.5622 422.296 98.7282 421.236Z" fill="#12181B"/>
<path d="M85.5352 458.874C86.5582 459.653 87.7057 466.974 87.9662 468.65C86.6402 467.524 85.5707 460.732 85.5352 458.874Z" fill="#040404"/>
<path d="M80.1465 563.425C82.5315 563.935 86.6615 564.76 88.7405 565.87C87.117 565.92 81.0985 564.665 80.1465 563.425Z" fill="#12181B"/>
<path d="M64.6377 548.185C66.8972 548.64 69.7542 550.92 71.3312 552.56C69.2602 552.01 66.3642 549.58 64.6377 548.185Z" fill="#12181B"/>
<path d="M211.741 300.805C211.983 300.82 212.057 300.97 212.324 301.189C213.433 306.451 213.999 313.582 215.256 318.423C216.905 324.779 219.404 331.768 221.261 338.155C227.102 358.249 229.577 377.566 226.838 398.449C226.034 404.572 224.966 409.829 223.461 415.815C222.73 418.722 221.638 422.594 221.107 425.481C220.207 430.379 221.971 436.084 221.301 441.237C220.613 446.529 218.987 451.391 217.566 456.502C216.418 460.763 215.34 465.042 214.33 469.337C216.456 465.585 218.954 458.257 220.704 453.889C223.711 466.314 227.333 480.325 227.21 493.085C227.072 507.3 222.888 521.46 223.273 535.83C223.324 537.735 223.804 542.705 223.613 544.255C222.68 551.875 224.221 556.64 226.391 563.75C215.101 565.93 200.799 569.985 189.073 567.405C188.33 567.24 187.485 566.65 187.31 565.825C186.733 563.115 187.913 559.385 187.912 556.62C187.912 554.285 186.04 550.675 185.872 548.475C185.678 545.91 186.727 542.42 186.666 539.805C186.394 528.195 184.986 521 179.768 510.99C172.271 496.755 173.409 487.19 176.232 471.812C177.191 466.299 178.238 460.801 179.372 455.321C182.285 458.139 187.601 466.132 191.188 468.022L191.452 467.824C189.942 465.43 187.193 463.289 185.656 460.606C182.494 455.089 179.153 449.122 177.094 443.126C174.203 434.707 173.925 424.415 171.859 415.972C168.45 402.036 161.672 389.244 161.375 374.434C161.307 371.063 161.141 368.075 161.945 364.726C168.734 356.977 183.838 346.299 192.436 340.149C197.143 336.782 201.862 333.987 206.183 329.97C205.112 330.444 204.065 330.978 203.066 331.607C197.443 335.232 190.779 338.071 185.542 342.197C179.835 346.696 174.63 350.146 167.614 352.457C174.302 343.606 174.797 336.744 174.816 325.696C174.846 320.926 174.754 316.157 174.54 311.393C189.206 309.113 198.1 308.031 211.741 300.805Z" fill="#344345"/>
<path d="M213.379 416.818C210.357 426.689 205.61 435.461 196.693 440.929C189.728 445.199 183.585 438.996 180.89 432.716C174.733 418.367 179.692 399.219 181.814 384.267C182.161 381.825 183.796 371.506 184.829 370.25C185.127 372.68 183.515 378.211 183.157 381.152C181.102 398.035 172.386 422.985 187.353 436.241C190.808 439.3 193.559 437.764 196.825 435.598C198.177 434.438 206.368 426.123 206.545 426.081L207.041 427.248C208.934 423.92 211.112 419.826 213.379 416.818Z" fill="#040404"/>
<path d="M196.824 435.598C198.176 434.438 206.368 426.123 206.544 426.081L207.041 427.248C205.253 430.157 201.036 435.337 197.776 436.282C197.429 436.048 197.155 435.853 196.824 435.598Z" fill="#12181B"/>
<path d="M218.614 551.15L218.802 551.165L218.953 551.54C217.398 553.545 211.544 556.485 209.11 557.485C213.846 557.23 218.031 557.55 222.67 558.685C221.948 558.995 215.694 558.445 214.286 558.385C207.438 558.685 206.856 558.51 200.926 561.695C206.425 557.045 212.246 554.345 218.614 551.15Z" fill="#040404"/>
<path d="M198.541 448.018C200.887 449.842 205.891 462.139 207.269 465.302C204.248 463.802 199.89 451.511 198.541 448.018Z" fill="#040404"/>
<path d="M192.468 538.98C194.043 539.22 207.309 546 208.79 547.23C204.295 546.83 195.679 542.08 192.468 538.98Z" fill="#040404"/>
<path d="M195.499 349.473L195.651 349.78C194.76 350.224 193.837 350.549 192.888 350.844C187.354 352.566 181.991 354.724 176.622 356.899L176.404 356.806L176.597 356.307C180.361 353.743 190.873 350.663 195.499 349.473Z" fill="#040404"/>
<path d="M199.577 499.57C200.079 504.115 195.745 516.45 192.634 519.665C192.67 519.045 195.084 513.575 195.462 512.625C197.176 508.31 198.331 504.03 199.577 499.57Z" fill="#040404"/>
<path d="M208.899 333.706C208.544 335.482 193.956 342.821 191.864 343.789C191.846 343.679 191.99 343.314 192.033 343.182C197.017 340.51 204.372 335.73 208.899 333.706Z" fill="#12181B"/>
<path d="M204.986 307.428L205.157 307.646C203.262 310.199 194.472 313.555 191.33 314.542L191.031 314.38C195.098 312.054 200.673 309.518 204.986 307.428Z" fill="#040404"/>
<path d="M190.561 548.38C190.699 548.365 190.838 548.355 190.977 548.345C193.175 548.175 206.932 548.19 207.922 549.03C204.226 549.56 193.357 549.81 190.561 548.38Z" fill="#040404"/>
<path d="M194.695 316.261L194.996 316.669C191.831 318.535 182.487 320.642 178.561 321.48L178.322 321.08C184.777 319.385 188.23 318.441 194.695 316.261Z" fill="#12181B"/>
<path d="M211.393 317.794L211.649 318.037L211.544 318.491C209.503 320.115 204.464 323.645 202.147 324.768L201.987 324.658C202.172 323.799 210.123 318.621 211.393 317.794Z" fill="#12181B"/>
<path d="M192.396 466.482C194.431 467.244 198.148 470.079 198.968 472.156C196.461 471.301 193.821 468.684 192.396 466.482Z" fill="#040404"/>
<path d="M198.095 444.716C199.759 444.93 203.846 449.12 204.926 450.499C202.493 449.937 199.633 446.628 198.095 444.716Z" fill="#040404"/>
<path d="M189.011 554.075C190.71 554.83 194.172 557.695 195.436 559.125C192.991 558.48 190.429 556.125 189.011 554.075Z" fill="#12181B"/>
<path d="M212.633 538.61C214.931 539.22 219.62 540.795 221.624 541.935C218.818 541.865 214.959 540.055 212.633 538.61Z" fill="#12181B"/>
<path d="M195.683 472.012C197.392 472.653 197.811 472.982 198.669 474.455C197.176 473.731 196.818 473.242 195.683 472.012Z" fill="#040404"/>
<path d="M41.936 192.536C37.9166 181.508 36.3463 170.621 40.5946 159.322C41.6005 161.843 42.1015 164.642 43.0095 167.217C45.002 172.872 49.2055 181.771 54.3445 185.056C61.728 182.697 78.1485 176.504 84.1425 172.276C93.69 183.57 104.061 192.658 117.595 198.765C121.001 200.301 134.41 204.604 135.883 206.112L135.769 206.639C133.915 207.799 127.99 207.903 125.713 209.253L125.261 209.199C123.43 208.014 118.643 207.359 116.269 206.62C104.98 203.106 88.7345 193.093 84.425 181.352C84.1325 179.933 84.453 179.255 83.721 177.83C83.0735 181.301 83.0275 183.749 83.1385 187.3C81.767 185.472 80.4395 183.611 79.157 181.719C83.656 194.996 84.2645 191.925 81.054 206.893C79.1595 215.547 75.829 228.499 70.6175 235.781C67.9105 241.254 59.2285 251.218 59.374 256.22L61.956 253.7C63.103 267.902 63.9675 276.119 58.763 289.721C57.212 293.774 55.579 298.436 54.1945 302.585C52.9505 306.314 53.5895 312.01 52.937 314.797L52.9795 315.478C53.5685 316.894 54.3845 325.371 55.019 328.057C46.2275 323.973 40.1118 325.594 32.0843 330.252C28.9464 332.756 27.2724 334.659 24.7873 337.761C23.9904 332.633 24.093 326.723 23.3813 321.297L23.3738 320.3C22.5777 314.183 21.5636 308.097 20.3334 302.052C17.4788 287.772 14.5843 277.154 17.0713 262.101C18.3306 265.319 19.2248 267.186 21.1975 269.984C20.754 268.959 20.3448 267.92 19.9705 266.868C15.5048 253.992 22.4196 241.933 28.0086 230.335L26.4494 230.721C27.0181 225.168 27.0937 219.765 27.8281 214.054C29.2198 203.231 32.421 194.087 36.8673 184.216C38.3839 187.225 39.7325 189.965 41.936 192.536Z" fill="#1A7AA2"/>
<path d="M41.936 192.536C37.9166 181.508 36.3463 170.621 40.5946 159.322C41.6005 161.843 42.1015 164.642 43.0095 167.217C45.002 172.872 49.2055 181.771 54.3445 185.056C61.728 182.697 78.1485 176.504 84.1425 172.276C93.69 183.57 104.061 192.658 117.595 198.765C121.001 200.301 134.41 204.604 135.883 206.112L135.769 206.639C133.915 207.799 127.99 207.903 125.713 209.253L125.261 209.199C123.43 208.014 118.643 207.359 116.269 206.62C104.98 203.106 88.7345 193.093 84.425 181.352C84.1325 179.933 84.453 179.255 83.721 177.83C83.0735 181.301 83.0275 183.749 83.1385 187.3C81.767 185.472 80.4395 183.611 79.157 181.719C83.656 194.996 84.2645 191.925 81.054 206.893C79.673 200.47 82.4965 186.991 74.189 183.778C70.2705 184.76 56.1335 191.712 52.7495 193.712C50.9445 195.165 47.646 196.945 45.408 197.517C42.758 196.908 41.755 196.366 39.3379 195.178C38.972 202.672 35.9038 220.827 33.9538 228.231C31.3409 238.153 23.1244 244.324 23.5823 256.945C23.984 268.017 28.3796 274.394 30.3916 284.034C27.4572 281.92 23.2994 278.426 20.7052 275.921C21.5379 280.726 27.9918 313.608 29.9924 315.79C27.4782 317.162 25.5585 318.413 23.3738 320.3C22.5777 314.183 21.5636 308.097 20.3334 302.052C17.4788 287.772 14.5843 277.154 17.0713 262.101C18.3306 265.319 19.2248 267.186 21.1975 269.984C20.754 268.959 20.3448 267.92 19.9705 266.868C15.5048 253.992 22.4196 241.933 28.0086 230.335L26.4494 230.721C27.0181 225.168 27.0937 219.765 27.8281 214.054C29.2198 203.231 32.421 194.087 36.8673 184.216C38.3839 187.225 39.7325 189.965 41.936 192.536Z" fill="#175774"/>
<path d="M52.749 193.713C53.725 191.295 73.0075 182.618 74.723 182.871L74.1885 183.778C70.27 184.761 56.133 191.712 52.749 193.713Z" fill="#12181B"/>
<path d="M30.2781 225.139C29.6946 226.558 28.7378 229.093 28.0084 230.336L26.4492 230.722C27.8971 229.149 29.1337 226.975 30.2781 225.139Z" fill="#12181B"/>
<path d="M83.7207 177.831C83.8697 177.212 83.9732 176.179 84.3792 175.911C84.6557 177.752 84.5087 179.498 84.4247 181.353C84.1322 179.934 84.4527 179.256 83.7207 177.831Z" fill="#0B212A"/>
<path d="M42.9795 184.901C43.8175 185.595 45.183 192.091 45.556 193.609C43.7355 191.571 43.201 187.556 42.9795 184.901Z" fill="#12181B"/>
<path d="M47.4473 191.752C48.7333 192.223 48.7233 193.436 48.9618 194.649C47.8273 193.727 47.8058 193.164 47.4473 191.752Z" fill="#0B212A"/>
<path d="M30.0892 316.802C38.4949 313.133 44.2736 313.146 52.9791 315.478C53.5681 316.894 54.3841 325.372 55.0186 328.058C46.2271 323.974 40.1114 325.595 32.0839 330.253C28.946 332.757 27.272 334.66 24.7869 337.762C23.99 332.634 24.0926 326.723 23.3809 321.297C25.2883 319.497 27.8139 318.071 30.0892 316.802Z" fill="#1A7AA2"/>
<path d="M23.3809 321.297C25.2883 319.497 27.8139 318.071 30.0892 316.802C30.5649 319.157 31.524 329.293 32.0839 330.253C28.946 332.757 27.272 334.66 24.7869 337.762C23.99 332.634 24.0926 326.723 23.3809 321.297Z" fill="#175774"/>
<path d="M52.159 246.215C55.9925 244.998 61.19 243.541 64.359 241.086C66.336 239.555 68.3975 236.933 70.617 235.781C67.91 241.254 59.228 251.218 59.3735 256.22C58.6775 257.105 58.5805 257.208 57.5755 257.708C54.6695 257.913 52.83 253.614 51.762 251.4L52.17 251.157L52.936 250.866L53.3285 251.079C53.2705 249.63 49.5775 244.982 48.5425 243.581C48.495 243.083 48.3955 242.754 48.6535 242.341C49.622 242.626 51.4025 245.261 52.159 246.215Z" fill="#175774"/>
<path d="M29.9917 315.791C30.2555 315.664 30.5222 315.543 30.7915 315.429C37.5993 312.536 46.0117 312.012 52.9362 314.797L52.9787 315.478C44.2732 313.146 38.4946 313.133 30.0889 316.802C27.8136 318.071 25.2879 319.497 23.3805 321.297L23.373 320.3C25.5577 318.413 27.4775 317.162 29.9917 315.791Z" fill="#12181B"/>
<path d="M42.3496 237.795L43.1236 236.992C44.9196 239.144 46.8351 241.372 48.5421 243.581C49.5771 244.982 53.2701 249.63 53.3281 251.079L52.9356 250.866L52.1696 251.157C49.1276 246.564 45.4516 242.636 42.3496 237.795Z" fill="#175774"/>
<path d="M43.124 236.992C44.92 239.144 46.8355 241.372 48.5425 243.581C49.5775 244.982 53.2705 249.63 53.3285 251.079L52.936 250.866C50.898 247.882 43.993 239.435 43.124 236.992Z" fill="#12181B"/>
<path d="M51.7617 251.401C47.1427 245.512 42.9252 241.17 39.8994 234.249C40.8726 235.487 41.5032 236.462 42.3497 237.795C45.4517 242.637 49.1277 246.565 52.1697 251.158L51.7617 251.401Z" fill="#12181B"/>
<path d="M42.6621 246.074C47.8881 250.977 49.9361 254.43 52.5001 261.151C49.8351 257.394 45.5831 249.865 42.7386 247.105L42.6621 246.074Z" fill="#12181B"/>
<path d="M49.4504 285.679C49.9384 289.369 49.8904 292.735 50.4139 296.8L49.0904 295.444C48.8849 292.185 49.0054 288.914 49.4504 285.679Z" fill="#175774"/>
<path d="M49.0905 295.444L50.414 296.8C50.7735 298.696 50.643 300.491 50.587 302.414L50.3185 301.189C50.01 301.163 49.73 301.141 49.419 301.129L49.1955 301.122C48.9825 299.358 49.071 297.246 49.0905 295.444Z" fill="#040404"/>
<path d="M42.7383 247.105C41.8403 246.344 40.3469 245.194 40.1367 244.075C41.1388 244.328 41.8878 245.295 42.6618 246.074L42.7383 247.105Z" fill="#114054"/>
<path d="M140.39 25.8125C154.712 17.9497 157.172 24.571 170.801 26.5625C174.619 24.613 176.395 24.8285 180.117 23.3901C182.538 27.082 187.196 40.385 186.605 43.6665C183.018 43.172 180.482 45.5105 176.958 46.459C176.413 47.8445 175.829 49.4465 175.235 50.7905C175.782 51.0255 176.196 51.143 176.605 51.574C178.169 51.1435 180.373 50.235 181.933 49.624C183.874 48.676 185.914 47.23 187.501 49.3415C187.955 51.373 186.967 53.6085 186.311 55.6395C185.982 60.8585 187.971 64.418 187.698 69.1015C187.268 72.7385 185.763 76.2905 185.049 79.835C183.826 85.905 182.335 91.831 180.58 97.77C179.968 99.841 179.479 105.568 177.715 106.719L177.552 106.828C173.052 109.796 161.253 109.238 156.438 106.81C150.028 104.277 143.443 99.4565 137.356 96.3465C128.441 91.7925 129.056 84.988 126.912 76.1415C123.676 78.184 122.394 77.805 119.421 75.147C113.679 70.015 109.471 58.0885 115.554 51.8125C120.619 49.523 123.746 55.18 125.457 59.056L126.138 61.349C126.236 61.7785 126.403 62.151 126.562 62.5635C127.605 63.245 129.797 63.1585 131.148 63.231C130.11 51.1085 130.408 49.73 137.566 40.679C135.548 33.9995 132.792 29.255 140.39 25.8125Z" fill="#F2AF7D"/>
<path d="M137.566 40.679C135.548 33.9995 132.792 29.255 140.39 25.8125C138.788 30.6595 142.774 35.8005 143.649 40.616C144.159 43.42 142.361 45.496 142.493 47.7495L140.727 49.9585L140.824 50.3355C141.688 50.1265 142.01 50.039 142.821 49.6805C142.809 52.85 143.21 53.526 143.708 56.5025C142.696 56.9755 142.493 56.9565 141.366 56.981L142.048 56.278C141.274 55.2935 139.152 54.739 138.41 56.0615C137.084 58.425 135.692 62.519 135.582 65.155C135.409 69.3325 138.798 72.659 140.232 76.4655C139.043 76.6805 139.181 75.6385 138.137 76.3285C136.95 87.041 151.595 99.094 156.438 106.81C150.028 104.277 143.443 99.4565 137.356 96.3465C128.441 91.7925 129.056 84.988 126.912 76.1415C123.676 78.184 122.394 77.805 119.421 75.147C113.679 70.015 109.471 58.0885 115.554 51.8125C120.619 49.523 123.746 55.18 125.457 59.056L126.138 61.349C126.236 61.7785 126.403 62.151 126.562 62.5635C127.605 63.245 129.797 63.1585 131.148 63.231C130.11 51.1085 130.408 49.73 137.566 40.679Z" fill="#B47850"/>
<path d="M115.554 51.8127C120.619 49.5232 123.746 55.1802 125.457 59.0562L126.138 61.3492C125.245 62.2892 125.296 61.9917 123.613 62.1232C123.931 64.1007 123.252 65.0737 122.426 66.8817C123.287 68.3577 124.637 69.5567 124.321 71.2067L123.829 71.4232C120.301 66.6372 122.47 65.8037 121.317 63.8752L120.8 63.8727C119.57 64.7407 119.357 65.3557 118.532 66.5777C116.757 63.2602 120.805 61.4267 120.932 59.3192C120.048 58.6722 120.03 58.8407 118.88 58.6882L118.43 57.5952L117.486 57.2872L117.184 57.0517C117.402 56.3387 117.314 56.1722 117.162 55.4557C116.179 55.3432 115.669 56.1032 114.654 56.9087L114.439 56.7482C114.986 55.0737 115.485 54.2322 117.044 53.3777C115.927 53.1482 116.021 52.7892 115.554 51.8127Z" fill="#040404"/>
<path d="M115.555 51.8127C120.62 49.5232 123.747 55.1802 125.458 59.0562L126.139 61.3492C125.246 62.2892 125.296 61.9917 123.614 62.1232L122.657 59.8407C120.886 56.9642 119.948 55.2287 117.044 53.3777C115.927 53.1482 116.021 52.7892 115.555 51.8127Z" fill="#F2AF7D"/>
<path d="M122.657 59.8407C123.51 59.7137 124.612 59.3212 125.458 59.0562L126.139 61.3492C125.246 62.2892 125.296 61.9917 123.614 62.1232L122.657 59.8407Z" fill="#CD8B62"/>
<path d="M117.185 57.0518L117.487 57.2873C116.241 58.8893 115.511 60.5648 115.295 62.5838C114.833 66.8958 117.183 67.8533 119.579 70.8083L119.475 71.1188C114.776 69.2193 112.614 60.4808 117.185 57.0518Z" fill="#39271B"/>
<path d="M131.283 66.0918C132.052 66.7178 136.378 73.1823 137.288 74.4833C134.57 72.8073 132.347 69.0333 131.283 66.0918Z" fill="#39271B"/>
<path d="M149.587 42.6885C151.964 42.9335 164.25 45.2625 166.082 46.2705C166.783 47.9025 166.281 49.0275 165.068 50.3335L164.492 50.6045C161.656 50.4745 160.068 49.998 157.312 49.2935C150.347 47.327 149.563 47.011 142.821 49.6805C142.01 50.039 141.688 50.1265 140.824 50.3355L140.727 49.9585L142.493 47.7495C144.756 45.855 146.905 43.986 149.587 42.6885Z" fill="#040404"/>
<path d="M176.606 51.574C178.169 51.1435 180.374 50.235 181.934 49.624C182.539 50.1175 182.899 50.403 183.431 50.97L183.103 50.786L182.334 51.6055C181.846 51.4785 182.08 51.4405 181.617 51.662L181.272 51.384L181.617 51.4525L181.264 51.639L181.64 51.8925C183.231 52.3575 183.822 52.461 184.625 53.9215C184.897 54.423 185.154 54.9325 185.397 55.449L184.853 56.7925C181.206 59.836 179.356 58.8355 174.899 57.9625C176.015 62.927 177.567 67.3725 178.962 72.2255C179.297 73.3885 178.136 75.336 177.37 76.258C175.768 76.87 173.93 77.5955 172.256 76.8695C173.701 75.6205 175.518 76.117 177.246 73.7865C177.555 73.2535 178.129 72.0495 178.007 71.5075C176.794 66.127 173.788 59.493 173.244 54.0115L175.235 50.7905C175.783 51.0255 176.197 51.143 176.606 51.574Z" fill="#12181B"/>
<path d="M181.64 51.8926C183.231 52.3576 183.822 52.4611 184.625 53.9216C184.897 54.4231 185.154 54.9326 185.397 55.4491L184.853 56.7926C184.381 55.7591 183.748 54.6056 182.812 53.9521L182.432 54.0966C182.158 55.5716 182.272 55.9721 181.042 56.7086C179.369 55.5451 181.35 55.2731 180.963 53.7671C179.982 53.4941 179.768 53.4416 178.904 52.9141L179.285 52.1196C179.924 52.0871 181.076 52.0781 181.64 51.8926Z" fill="#040404"/>
<path d="M176.605 51.574C178.169 51.1435 180.373 50.235 181.933 49.624C182.538 50.1175 182.899 50.403 183.431 50.97L183.103 50.786L182.334 51.6055C181.845 51.4785 182.079 51.4405 181.616 51.662L181.272 51.384L181.616 51.4525L181.263 51.639L181.64 51.8925C181.076 52.078 179.924 52.087 179.284 52.1195C177.701 51.8055 176.131 53.805 174.942 54.8235L174.793 54.4865C175.336 52.4245 174.979 53.1355 176.605 51.574Z" fill="#A06D4B"/>
<path d="M177.761 53.6494L178.256 54.1349C178.263 55.9314 178.533 56.2769 179.485 57.8404L179.26 58.1009L177.05 58.1574C175.911 57.8029 175.804 57.9714 175.123 57.1444C175.327 55.3939 176.342 54.8174 177.761 53.6494Z" fill="white"/>
<path d="M156.326 50.9229C157.698 51.1789 159.062 51.4799 160.414 51.8254L161.115 52.7834C160.606 53.2509 160.763 53.1064 159.983 53.2554L159.864 53.6154C160.513 54.4309 161.252 55.8434 161.786 56.7904C154.994 59.3289 151.698 58.2864 145.145 55.8764C147.677 53.3699 149.58 52.4989 152.872 51.5634L156.326 50.9229Z" fill="#12181B"/>
<path d="M156.325 50.9229C157.697 51.1789 159.061 51.4799 160.414 51.8254L161.115 52.7834C160.606 53.2509 160.763 53.1064 159.983 53.2554L159.863 53.6154L159.383 53.8149C156.871 52.5014 158.322 55.4729 155.313 55.7494C155.287 55.4569 155.642 54.2384 155.659 53.5454C154.938 52.7909 154.075 52.8949 152.828 52.6854L152.871 51.5634L156.325 50.9229Z" fill="#040404"/>
<path d="M152.828 52.6855C152.642 55.2945 153.691 55.9265 153.339 57.261C152.32 57.582 150.622 56.9635 149.501 56.664C148.718 56.4155 148.602 56.357 147.929 55.886L147.852 55.2645C148.755 53.8895 151.246 53.218 152.828 52.6855Z" fill="white"/>
<path d="M163.673 72.7847L164.171 73.5052C166.768 73.6287 167.632 72.4697 170.485 73.0467L169.225 73.7867C170.372 74.2192 170.717 74.2862 171.508 75.2792L172.255 76.8697C173.929 77.5957 175.768 76.8702 177.369 76.2582C175.353 79.1552 174.747 79.8957 171.572 81.6927C169.334 80.6442 165.983 78.8092 164.833 76.5207C164.898 75.3597 163.555 74.9322 163.673 72.7847Z" fill="#B47850"/>
<path d="M169.225 73.7866C170.372 74.2191 170.717 74.2861 171.508 75.2791C169.763 75.4261 168.038 75.7276 166.413 75.1106L166.368 74.6931C167.444 74.0576 168.025 74.0121 169.225 73.7866Z" fill="#040404"/>
<path d="M164.492 50.6045L165.068 50.3335C165.899 51.925 166.294 52.5755 167.358 54.0145C166.148 57.1725 163.065 60.3425 159.972 61.717C161.389 60.3515 163.136 58.7735 164.325 57.2445C163.114 55.1405 162.635 53.538 159.982 53.2555C160.762 53.1065 160.605 53.251 161.114 52.7835L160.413 51.8255C161.559 51.9545 163.088 50.9875 164.492 50.6045Z" fill="#B47850"/>
<path d="M157.313 49.2935C160.069 49.998 161.656 50.4745 164.492 50.6045C163.089 50.9875 161.56 51.9545 160.414 51.8255C159.061 51.48 157.697 51.179 156.325 50.923L156.314 50.8775C155.567 50.3155 151.075 50.7085 149.905 50.7865L150.266 50.4725L150.119 50.7995C151.678 49.0395 155.309 50.1905 157.313 49.2935Z" fill="#A06D4B"/>
<path d="M170.485 73.0464C172.51 73.2479 174.595 74.1939 176.231 73.9549L176.532 73.9129C176.784 73.8759 176.998 73.8364 177.246 73.7864C175.518 76.1169 173.701 75.6204 172.256 76.8694L171.508 75.2789C170.717 74.2859 170.373 74.2189 169.226 73.7864L170.485 73.0464Z" fill="#A06D4B"/>
<path d="M164.833 76.5206C162.521 74.9696 162.027 71.9856 164.241 70.3896C164.513 71.1086 164.011 71.8716 163.673 72.7846C163.555 74.9321 164.898 75.3596 164.833 76.5206Z" fill="#040404"/>
<path d="M161.972 90.2402C168.398 91.4087 169.11 91.3627 175.602 90.4787C175.538 91.1732 174.865 91.6197 174.266 92.2427C173.883 92.7697 173.583 93.2082 173.232 93.7582L173.975 94.4367L173.65 94.6317C172.86 94.5927 164.675 94.5977 164.78 94.6287L165.835 93.5267L165.743 92.3557C164.484 91.6882 163.158 91.0187 161.972 90.2402Z" fill="#040404"/>
<path d="M174.266 92.2427C173.883 92.7697 173.583 93.2082 173.232 93.7582L173.975 94.4367L173.65 94.6317C172.86 94.5927 164.675 94.5977 164.78 94.6287L165.835 93.5267L165.743 92.3557C168.365 93.0047 171.668 93.0077 174.266 92.2427Z" fill="#B47850"/>
<path d="M153.516 82.2988L154.073 83.1368C159.012 85.8848 170.518 85.7258 176.292 85.3778C177.656 85.2953 179.392 82.6258 180.556 83.9438L180.256 84.4518C174.179 87.7453 165.575 86.6973 158.902 85.6768C156.487 85.3073 155.065 84.0533 152.245 83.8423L151.885 83.8188L151.928 83.4978L153.516 82.2988Z" fill="#040404"/>
<path d="M143.106 78.5835C143.147 78.868 143.279 81.271 143.249 81.6295C143.081 83.661 145.334 88.098 145.105 89.5825C144.895 89.199 144.687 88.8135 144.482 88.4275C142.489 84.683 141.847 82.716 143.106 78.5835Z" fill="#39271B"/>
<path d="M153.883 77.3652L154.246 77.5137C151.893 80.1122 149.755 78.5367 148.585 83.3592C148.345 83.3092 148.235 83.1312 147.996 82.9152C147.786 79.2667 150.919 78.7167 153.883 77.3652Z" fill="#040404"/>
<path d="M168.134 55.5947C169.258 56.8932 169.746 59.3527 170.147 61.0382C169.046 60.3977 168.298 56.8412 168.134 55.5947Z" fill="#694D39"/>
<path d="M169.649 45.4199C170.095 46.5129 169.502 48.0229 169.065 49.0434L168.718 48.8819C168.698 47.7439 169.253 46.5274 169.649 45.4199Z" fill="#694D39"/>
<path d="M176.027 59.9771C177.77 59.9751 178.999 60.6101 180.583 61.2861C178.862 61.3561 177.546 60.6926 176.027 59.9771Z" fill="#A06D4B"/>
<path d="M283.996 205.445C286.389 202.765 289.718 200.076 292.342 197.401C292.805 204.952 293.438 209.375 299.624 214.592C303.016 216.63 304.238 217.206 308.306 217.337C304.538 221.776 300.331 225.907 296.544 230.324C294.874 232.27 293.276 234.694 291.743 236.786C285.677 245.065 278.935 253.648 269.653 258.474C268.424 259.114 265.539 260.981 264.242 260.922L262.972 260.445C254.211 267.318 252.173 269.762 242.787 262.522C236.321 257.534 233.864 253.485 228.895 247.08C224.777 241.772 220.596 237.836 217.597 231.562C218.19 226.834 219.261 224.598 219.465 219.254C219.373 217.853 219.287 216.311 219.981 215.083C219.221 213.599 219.659 203.776 219.989 201.638C220.076 201.079 221.112 199.308 221.465 198.725C222.835 207.237 224.821 214.601 231.845 220.865C234.177 222.945 239.649 223.311 242.866 223.699C237.569 228.563 235.958 232.466 227.897 231.306C231.141 236.911 233.217 242.581 236.742 248.072C236.911 243.451 237.231 238.928 240.17 235.11C240.658 233.99 240.741 233.818 241.527 232.86L242.58 232.64C241.975 235.13 240.879 240.534 242.313 242.73C242.322 242.423 242.338 242.117 242.362 241.811C243.283 231.18 249.814 221.851 259.489 217.345C269.926 212.54 273.85 214.189 283.325 206.002L283.996 205.445Z" fill="#175774"/>
<path d="M283.996 205.445C286.389 202.765 289.718 200.076 292.342 197.401C292.805 204.952 293.438 209.375 299.624 214.592C296.859 217.431 294.037 220.214 291.161 222.939C292.224 223.614 296.156 225.856 296.622 226.375C294.788 226.391 292.069 224.864 290.532 223.902C281.197 235.522 270.79 248.585 254.828 250.532C252.564 250.808 246.206 251.386 244.421 250.021C242.588 248.619 242.589 245.012 242.313 242.73C242.322 242.423 242.338 242.117 242.362 241.811C243.283 231.18 249.814 221.851 259.489 217.345C269.926 212.54 273.85 214.189 283.325 206.002L283.996 205.445Z" fill="#1A7AA2"/>
<path d="M283.996 205.445C286.389 202.765 289.718 200.076 292.342 197.401C292.805 204.952 293.438 209.375 299.624 214.592C296.859 217.431 294.038 220.214 291.161 222.939C285.827 218.775 283.437 212.067 283.996 205.445Z" fill="#1A7AA2"/>
<path d="M283.325 206.002L283.997 205.445C283.438 212.067 285.827 218.775 291.161 222.939C292.224 223.614 296.157 225.856 296.622 226.375C294.789 226.391 292.069 224.864 290.532 223.902C290.079 223.512 289.639 223.108 289.213 222.689C284.189 217.712 283.321 212.636 283.325 206.002Z" fill="#12181B"/>
<path d="M270.656 216.444C270.963 217.335 269.823 218.429 269.278 219.183L269.109 218.704C269.285 217.629 269.867 217.237 270.656 216.444Z" fill="#175774"/>
<path d="M240.17 235.11C240.659 233.99 240.741 233.818 241.528 232.86C241.463 234.96 240.051 240.523 239.284 242.588C239.462 239.735 239.691 237.933 240.17 235.11Z" fill="#040404"/>
<path d="M219.982 215.083C220.691 216.064 223.662 220.047 223.692 220.992C222.229 219.612 220.83 216.851 220.005 216.717C219.604 217.648 219.589 218.259 219.466 219.254C219.373 217.854 219.288 216.311 219.982 215.083Z" fill="#0B212A"/>
<path d="M270.303 256.175C268.989 257.255 265.051 259.969 264.242 260.922L262.972 260.445C265.463 258.915 267.716 257.53 270.303 256.175Z" fill="#12181B"/>
<path d="M221.391 219.762C225.856 223.272 224.179 223.916 231.442 227.311C227.702 227.467 222.597 223.139 221.391 219.762Z" fill="#12181B"/>
<path d="M203.739 573.31C204.364 573.28 208.019 571.74 208.894 571.415C213.918 569.53 219.161 568.49 224.425 567.525C228.086 572.135 239.275 585.545 243.471 589.205C252.249 596.86 263.125 595.275 268.127 609.715C260.654 613.22 254.315 614.4 246.097 614.565C239.905 614.79 234.361 614.31 228.373 612.825C223.292 611.565 220.166 610.385 215.731 607.435C214.114 606.05 210.85 604.64 209.347 603.49C206.449 601.275 184.563 597.415 183.784 595.215C181.5 588.765 185.732 576.815 188.132 570.97C192.845 572.255 197.181 572.545 201.985 571.905C203.138 571.75 205.545 571.085 206.512 571.345C205.854 572.01 204.818 572.32 203.92 572.685L203.739 573.31Z" fill="#344345"/>
<path d="M196.401 576.545C197.74 575.33 201.974 573.01 203.74 573.31C202.488 574.13 197.725 576.485 196.401 576.545Z" fill="#12181B"/>
<path d="M192.375 575.7C194.493 577.125 196.791 587.54 196.974 590.175L196.737 590.445L196.189 589.23C194.61 583.735 193.934 582.935 191.256 577.89L191.384 577.655L192.389 578.4L192.613 578.175L192.375 575.7Z" fill="#040404"/>
<path d="M240.025 591.65C240.253 591.615 240.805 591.685 241.065 591.71C240.327 592.225 237.932 592.595 236.924 592.86C231.529 594.285 227.371 595.84 223.295 599.78L222.662 600.2L222.501 599.975C222.614 599.765 222.74 599.56 222.878 599.365C226.345 594.45 234.364 592.415 240.025 591.65Z" fill="#12181B"/>
<path d="M236.551 588.975C237.361 588.885 237.91 588.71 238.566 589.125C237.629 589.7 234.127 590.01 232.747 590.415C229.025 591.5 224.942 593.49 221.869 595.8C221.296 596.325 221.062 596.51 220.409 596.93L220.281 596.605C223.717 592.255 231.2 589.93 236.551 588.975Z" fill="#12181B"/>
<path d="M216.362 574.73C219.698 575.895 227.379 584.955 228.962 588.33C228.829 588.255 216.966 575.54 216.362 574.73Z" fill="#12181B"/>
<path d="M217.863 570.185L218.096 570.195L218.35 570.47C217.408 571.36 205.722 576.415 203.544 577.43L203.17 577.28C204.049 576.005 215.361 571.31 217.863 570.185Z" fill="#12181B"/>
<path d="M118.953 113.27C119.238 112.498 120.01 108.988 120.092 108.829C121.651 105.761 122.162 83.0541 122.815 82.0241C124.187 81.7946 124.595 81.6491 125.897 81.1626C126.993 82.0076 127.142 86.8601 127.452 88.4456C128.748 95.0626 133.777 99.1806 138.963 103.05C144.305 107.035 149.681 111.697 155.687 114.683C158.444 116.054 163.441 115.117 164.923 116.116C165.075 118.196 162.33 120.803 160.916 123.3C160.638 124.08 160.452 124.374 160.55 125.17C162.4 122.65 162.953 121.956 165.316 119.934L167.386 115.885C168.417 115.234 170.136 114.388 171.257 113.792C171.243 115.603 171.235 116.345 170.898 118.106C170.611 122.017 170.391 124.557 170.963 128.454C172.029 124.603 172.549 122.202 172.936 118.215C179.485 122.088 178.487 128.733 176.548 135.206C172.828 135.542 165.481 136.401 163.917 140.459C164.67 140.548 166.449 138.701 167.627 138.247C170.477 137.151 172.958 136.733 175.941 136.53C173.248 142.634 168.488 148.592 163.064 152.465C152.864 146.849 141.241 140.855 131.692 134.209C138.054 134.956 145.927 135.411 151.732 138.076C154.583 139.385 157.4 141.408 160.146 142.869C148.098 131.039 132.483 135.487 127.019 131.058C121.611 127.081 114.17 121.175 111.118 115.266C115.284 112.832 116.272 111.794 118.995 108.014L118.953 113.27Z" fill="#F2AF7D"/>
<path d="M118.953 113.27C119.238 112.498 120.01 108.988 120.092 108.829C121.651 105.761 122.162 83.0541 122.815 82.0241C124.187 81.7946 124.595 81.6491 125.897 81.1626C126.993 82.0076 127.142 86.8601 127.452 88.4456C128.748 95.0626 133.777 99.1806 138.963 103.05C144.305 107.035 149.681 111.697 155.687 114.683C158.444 116.054 163.441 115.117 164.923 116.116C165.075 118.196 162.33 120.803 160.916 123.3C157.296 123.358 154.933 122.947 151.48 121.928C150.419 121.615 147.22 120.136 146.669 120.321L147.17 122.222C147.722 123.77 148.348 125.419 148.776 126.995C149.381 128.875 150.333 130.901 150.612 132.727C150.149 132.55 147.219 127.886 146.89 127.259C145.167 124.557 143.098 120.331 141.559 117.407C139.347 115.49 137.158 113.548 134.992 111.58C136.347 116.796 139.969 125.173 140.725 128.964C138.097 127.444 137.207 121.424 135.477 120.608L135.49 121.301C132.877 126.027 131.255 127.795 127.019 131.058C121.611 127.081 114.17 121.175 111.118 115.266C115.284 112.832 116.272 111.794 118.995 108.014L118.953 113.27Z" fill="#B47850"/>
<path d="M135.947 104.898C140.816 111.826 143.235 119.091 146.953 126.35L147.203 127.213L146.889 127.258C145.166 124.557 143.098 120.331 141.558 117.407C139.888 113.059 137.49 109.043 135.947 104.898Z" fill="#040404"/>
<path d="M171.257 113.792C171.243 115.603 171.235 116.345 170.898 118.106L170.871 116.242L170.486 116.008C168.878 116.569 167.737 118.747 165.316 119.934L167.386 115.885C168.417 115.234 170.136 114.388 171.257 113.792Z" fill="#A06D4B"/>
<path d="M135.49 121.301L135.477 120.608C137.207 121.423 138.096 127.443 140.725 128.963C141.105 130.366 141.2 130.624 141.082 132.07L140.716 131.955C139.081 129.387 136.851 124.224 135.49 121.301Z" fill="#694D39"/>
<path d="M165.819 129.111C166.128 130.679 164.286 135.839 163.714 137.537C163.043 136.17 165.122 130.596 165.819 129.111Z" fill="#694D39"/>
<path d="M33.1068 331.706C38.3497 328.349 49.0548 324.863 54.0848 330.049C53.6448 330.112 53.2028 330.165 52.7603 330.208C53.9123 333.06 66.7843 335.588 69.1748 338.883C72.5853 343.583 74.5103 348.96 77.2498 354.067C77.5273 356.27 75.3403 367.382 72.9378 368.004C70.8368 367.302 70.6978 359.443 69.5363 357.691C68.9043 356.738 67.1833 355.527 66.2378 354.824C66.2083 353.53 66.1293 352.176 66.0733 350.877L65.6698 350.87C65.1168 354.585 64.4818 357.127 63.5323 360.737C63.9573 361.313 66.2128 364.287 66.4313 364.713L67.7318 365.18L67.9498 364.851C67.4483 363.565 65.7333 361.673 64.7983 360.535C65.0048 359.333 65.1193 357.707 65.9688 356.91C66.4213 356.841 66.6838 356.666 67.0038 357C68.7983 358.868 69.4258 363.314 69.7063 365.815C70.1193 369.495 68.4838 376.132 63.9178 376.296C60.4393 376.42 58.6363 373.558 56.1683 371.651C54.5043 370.548 53.5263 369.886 51.9878 368.569C51.6298 368.571 51.0963 368.22 50.7288 368.028L50.2748 368.207L50.5318 368.445C53.0663 370.77 58.9068 373.914 59.0648 376.751C57.6193 378.529 54.8983 378.464 53.0298 377.35L52.3628 377.852L52.4603 378.035C51.5408 378.424 46.8838 378.516 45.5718 378.573C43.8463 377.386 42.3323 376.212 40.2602 375.895C41.8828 376.856 42.9153 377.661 44.2343 378.983C40.3055 377.212 38.2128 375.88 34.6501 373.441C32.9002 372.564 31.8362 371.872 30.5027 370.464C28.247 361.26 27.7676 349.074 25.8213 339.318C27.5162 336.442 30.3784 333.598 33.1068 331.706Z" fill="#F2AF7D"/>
<path d="M25.8213 339.319C27.5162 336.442 30.3784 333.598 33.1068 331.706C33.7796 333.652 34.1917 334.743 34.5121 336.808C34.4329 337.633 37.3585 356.149 37.4233 356.233C37.4562 356.275 37.4997 356.308 37.5379 356.346C38.4757 362.02 37.4167 367.307 42.8468 369.757C44.8793 368.642 47.0508 367.868 47.8128 365.804C48.5908 366.658 49.3243 367.572 50.2748 368.207L50.5318 368.446C53.0663 370.77 58.9068 373.914 59.0648 376.752C57.6193 378.529 54.8983 378.464 53.0298 377.351L52.3628 377.853L52.4603 378.035C51.5408 378.424 46.8838 378.516 45.5718 378.574C43.8463 377.387 42.3323 376.212 40.2602 375.896C41.8828 376.856 42.9153 377.661 44.2343 378.983C40.3055 377.213 38.2128 375.88 34.6501 373.441C32.9002 372.564 31.8362 371.873 30.5027 370.464C28.247 361.261 27.7676 349.075 25.8213 339.319Z" fill="#B47850"/>
<path d="M39.0135 371.095C36.7404 367.459 36.87 364.445 36.5724 360.18L36.9619 359.915L36.5645 359.865L36.8068 359.438C37.6016 362.048 37.1852 366.609 38.8509 368.075C42.5938 371.369 49.4173 373.754 53.0298 377.35L52.3628 377.853C48.9578 376.506 46.2033 374.72 43.0158 372.974C41.7393 372.275 40.1737 371.738 39.0135 371.095Z" fill="url(#paint1_linear_1682_8842)"/>
<path d="M31.2891 348.842C31.9785 351.007 32.8651 356.103 33.2411 358.524C33.9394 363.02 32.859 367.085 35.409 371.444C36.7132 372.162 38.6262 373.098 39.6402 374.108L39.4845 374.458C38.7293 374.395 38.2753 374.343 37.5335 374.192C36.4008 373.895 35.8566 373.429 34.9134 372.77C33.2026 369.879 31.6254 353.083 31.2891 348.842Z" fill="#39271B"/>
<path d="M34.9129 372.771C35.8561 373.43 36.4003 373.895 37.533 374.192C38.2117 375.023 39.0271 376.186 40.2605 375.896C41.883 376.856 42.9155 377.661 44.2345 378.983C40.3058 377.213 38.213 375.88 34.6504 373.441L34.9129 372.771Z" fill="#A06D4B"/>
<path d="M64.798 360.535C65.0045 359.334 65.119 357.708 65.9685 356.91C66.421 356.841 66.6835 356.667 67.0035 357C68.798 358.868 69.4255 363.314 69.706 365.816C70.119 369.496 68.4835 376.133 63.9175 376.296C60.439 376.421 58.636 373.558 56.168 371.652C54.504 370.548 53.526 369.887 51.9875 368.569C51.6295 368.572 51.096 368.22 50.7285 368.029L50.2745 368.207C49.324 367.572 48.5905 366.658 47.8125 365.804L48.2935 365.362L49.5695 365.795C52.0705 365.89 54.877 365.808 57.4055 365.784C59.9235 367.76 63.538 373.666 66.416 372.836C68.817 370.435 67.7715 367.267 66.431 364.713L67.7315 365.181L67.9495 364.851C67.448 363.566 65.733 361.674 64.798 360.535Z" fill="#B47850"/>
<path d="M47.8125 365.804L48.2935 365.362L49.5695 365.795C51.795 367.028 55.1625 368.758 56.752 370.704L56.546 370.78L56.168 371.652C54.504 370.548 53.526 369.887 51.9875 368.569C51.6295 368.572 51.096 368.22 50.7285 368.029L50.2745 368.207C49.324 367.572 48.5905 366.658 47.8125 365.804Z" fill="#040404"/>
<path d="M51.9883 368.569C54.0368 369.098 55.5323 370.524 56.5468 370.78L56.1688 371.651C54.5048 370.548 53.5268 369.886 51.9883 368.569Z" fill="#A06D4B"/>
<path d="M66.0732 350.878C67.1957 350.917 66.7457 351.008 67.7842 350.475C69.9007 352.895 68.6897 353.639 73.3817 356.739C74.7077 355.906 76.0792 355.103 77.2497 354.067C77.5272 356.271 75.3402 367.382 72.9377 368.004C70.8367 367.303 70.6977 359.444 69.5362 357.692C68.9042 356.738 67.1832 355.527 66.2377 354.824C66.2082 353.531 66.1292 352.177 66.0732 350.878Z" fill="#B47850"/>
<path d="M37.5381 356.346C37.4999 356.308 37.4565 356.275 37.4236 356.233C37.3588 356.149 34.4332 337.633 34.5123 336.808C36.9492 344.819 37.479 347.958 37.5381 356.346Z" fill="#040404"/>
<path d="M43.332 348.574C46.255 351.485 46.557 360.518 47.1895 364.302C45.7985 362.805 44.15 351.855 43.332 348.574Z" fill="#040404"/>
<path d="M66.2243 572.23C70.1063 571.98 79.6928 573.445 83.8368 574.3L85.5973 575.96L86.2758 575.87L85.9998 575.77C87.6403 574.94 88.8608 575.46 90.6343 575.915C92.3733 586.235 92.9583 590.215 93.0338 600.64C92.0363 601.44 90.8003 602.615 89.6133 602.86C87.8158 601.515 89.7723 595.56 88.9628 594.1C87.0143 601.205 87.8878 609.32 88.1603 616.615C85.4878 620.145 83.9088 620.88 79.8573 622.525L79.6408 622.59C66.9113 626.37 54.0338 624.495 42.4863 618.22C43.4203 606.42 48.7018 605.295 53.6208 595.465C55.5203 591.67 57.0573 584.615 59.0893 580.405C61.4113 575.59 61.2203 574.275 66.2243 572.23Z" fill="#344345"/>
<path d="M77.7996 578.325C78.1746 581.165 76.1911 594.525 75.2511 597.415C76.2526 597.985 77.6796 598.665 78.1256 599.655C77.0361 599.72 75.9236 598.915 74.8976 598.35C74.0246 597.98 71.3771 597.015 70.9121 596.375C72.1186 596.415 73.6221 597.005 74.8271 597.39C75.4466 593.605 76.9396 581.155 77.7996 578.325Z" fill="#12181B"/>
<path d="M62.1384 598.565C66.1419 598.13 74.2613 599.07 77.3708 601.68C76.0923 601.655 74.0344 600.78 72.7589 600.31C66.6624 598.83 62.3619 598.765 56.1729 599.825C57.6389 598.91 60.4024 598.69 62.1384 598.565Z" fill="#12181B"/>
<path d="M83 577.35C84.4665 577.27 88.116 579.71 89.6695 580.615C86.595 581.145 84.6565 579.785 83 577.35Z" fill="#040404"/>
<path d="M299.677 184.706C302.761 177.109 307.248 172.951 312.847 167.321C314.69 165.469 320.078 152.539 323.631 154.057C327.923 155.891 325.205 162.425 323.45 165.296C322.478 166.278 321.58 167.283 320.724 168.369C318.279 171.474 318.63 173.96 314.56 175.095C323.122 177.455 325.374 176.663 334.241 174.285C337.985 173.28 338.289 172.557 342.448 172.558L342.679 171.612C346.571 169.747 357.3 163.64 360.932 165.471L360.922 165.851C358.741 167.175 334.904 179.918 335.108 179.529C335.371 179.781 335.586 180.155 335.973 180.036C343.073 177.845 349.481 173.814 355.926 170.162C358.716 168.581 364.866 164.434 367.071 169.09C367.087 170.758 366.404 171.678 364.6 171.905C359.534 169.329 358.422 172.563 353.807 174.955C352.012 175.885 350.211 177.064 348.385 177.973C344.949 180.86 340.23 182.505 336.786 184.863L335.869 182.463C335.858 183.26 336.485 184.867 336.41 185.594C336.236 187.281 335.571 188.043 335.634 189.837C336.506 188.784 336.814 187.204 337.187 185.858C339.588 184.479 342.092 183.287 344.676 182.294C343.237 186.182 342.193 187.538 338.245 189.362C337.512 189.699 336.773 190.026 336.03 190.342C333.898 192.319 333.811 192.914 333.202 195.822L333.771 195.944C334.204 194.373 334.591 193.562 335.279 192.071C336.396 191.369 338.657 190.253 339.946 190.065C340.092 190.847 340.242 191.627 340.396 192.407C341.65 191.482 340.102 189.524 342.986 187.459C345.909 185.365 347.728 174.885 353.696 178.503C352.596 183.666 348.215 190.087 345.475 194.611C343.83 195.544 342.601 196.246 341.065 197.323C339.347 198.529 335.856 201.799 334.18 202.47C327.883 204.991 321.231 207.051 314.901 209.56C312.982 210.321 310.165 211.103 308.505 212.121C309.27 212.057 309.918 211.954 310.674 212.093C310.272 213.246 308.449 214.988 307.522 215.899C304.394 215.248 302.472 214.551 299.941 212.453C299.576 212.095 299.216 211.731 298.862 211.363C294.519 206.838 294.151 202.67 294.287 196.834L297.45 193.282C299.08 191.704 298.726 187.829 299.677 184.706Z" fill="#F2AF7D"/>
<path d="M335.278 192.071C336.396 191.369 338.656 190.253 339.946 190.065C340.091 190.847 340.241 191.627 340.396 192.407C341.65 191.482 340.101 189.524 342.985 187.459C345.909 185.365 347.727 174.885 353.695 178.503C352.596 183.666 348.214 190.087 345.475 194.611C343.829 195.544 342.6 196.246 341.065 197.323C339.346 198.529 335.855 201.799 334.179 202.47C327.882 204.991 321.231 207.051 314.901 209.56C312.982 210.321 310.164 211.103 308.505 212.121C309.27 212.057 309.917 211.954 310.673 212.093C310.272 213.246 308.449 214.988 307.521 215.899C304.394 215.248 302.471 214.551 299.94 212.453C300.941 210.98 301.414 210.371 302.623 209.07C300.38 205.349 300.341 204.389 300.969 200.164C301.029 199.183 301.467 198.12 301.79 197.169C303.392 203.008 305.723 205.765 312.397 204.003C319.165 202.217 326.027 200.124 332.625 197.852C333.038 197.709 333.137 196.252 333.202 195.822L333.771 195.944C334.204 194.373 334.59 193.562 335.278 192.071Z" fill="#B47850"/>
<path d="M335.279 192.071C336.396 191.369 338.657 190.253 339.946 190.065C340.092 190.847 340.242 191.627 340.396 192.407C341.65 191.482 340.102 189.524 342.986 187.459C345.909 185.365 347.728 174.885 353.696 178.503C346.819 185.145 344.135 195.422 333.793 197.538C333.642 196.778 333.662 196.723 333.771 195.944C334.204 194.373 334.591 193.562 335.279 192.071Z" fill="#F2AF7D"/>
<path d="M300.969 200.164C301.359 201.125 301.355 201.949 301.431 202.986C301.655 206.031 302.368 206.963 303.986 209.434L303.616 209.63L302.623 209.071C300.38 205.35 300.341 204.389 300.969 200.164Z" fill="#040404"/>
<path d="M314.56 175.095C314.025 175.191 313.546 175.077 313.004 174.999C313.3 174.261 315.269 173.593 316.392 172.843C317.463 171.075 317.692 169.332 317.753 167.298C317.191 166.624 316.711 166.147 316.097 165.533L316.174 165.11C317.384 164.86 318.638 166.076 319.13 165.924C320.931 165.37 321.51 165.266 323.45 165.297C322.478 166.279 321.579 167.284 320.724 168.37C318.278 171.475 318.63 173.96 314.56 175.095Z" fill="#B47850"/>
<path d="M299.677 184.707C300.294 186.842 301.623 194.726 300.027 196.363C298.756 195.89 297.91 194.551 297.45 193.282C299.08 191.705 298.726 187.829 299.677 184.707Z" fill="#B47850"/>
<path d="M317.054 191.332C307.858 190.679 306.32 194.658 303.359 194.798C303.612 194.017 304.782 193.209 305.519 192.676C309.498 189.799 313.152 190.17 317.606 190.868L317.054 191.332Z" fill="#040404"/>
<path d="M327.886 181.62C328.249 183.238 325.598 190.543 325.748 192.372C326.555 191.815 326.744 191.561 327.413 190.825L326.118 194.24C325.802 195.921 325.479 196.771 324.885 198.392C325.356 192.401 325.35 187.126 327.886 181.62Z" fill="#39271B"/>
<path d="M323.321 178.673C323.967 181.765 318.547 186.77 316.183 188.336C316.061 187.857 316.113 188.009 316.259 187.457C319.889 184.757 321.125 182.458 323.321 178.673Z" fill="#040404"/>
<path d="M299.267 198.726L299.315 199.423C298.346 201.045 297.56 201.759 296.253 203.081C296.245 201.831 298.352 199.779 299.267 198.726Z" fill="#694D39"/>
<path d="M317.606 190.868C318.502 190.859 319.206 190.725 319.9 191.218C319.05 191.696 318.05 191.5 317.055 191.332L317.606 190.868Z" fill="#A06D4B"/>
<path d="M145.652 7.00933C153.511 6.28033 161.206 2.51768 168.72 3.17983C173.704 3.61898 179.426 8.66718 182.372 12.8195L183.809 9.53448C185.4 14.1266 185.525 17.5237 181.739 20.978L181.495 20.9422C181.938 19.3738 182.265 17.9856 182.615 16.3925L179.901 19.8321C180.512 18.2605 180.781 17.6357 181.032 15.9871C180.372 16.4065 179.473 18.4246 179.023 19.2743C179.222 17.0822 179.225 12.001 177.261 10.6077C176.919 11.4322 177.295 12.4319 177.508 13.3712C178.848 16.5106 175.798 20.4678 174.061 22.9174C174.489 19.1418 174.518 18.0393 173.343 14.4006C171.181 11.6853 168.568 10.5997 165.464 9.28498L165.261 9.81453C168.818 11.6345 170.304 13.4815 171.696 17.2851C172.211 18.9193 172.343 24.6459 169.978 25.0024C167.679 23.2706 166.807 14.8702 161.192 14.1193C162.657 15.5818 163.422 16.3736 164.702 18.0551C158.851 14.5392 154.824 12.8928 147.718 14.4516C142.911 15.5063 140.195 18.4249 135.617 18.0313L135.104 18.5025L135.246 18.9728C139.831 20.7739 145.914 13.36 153.808 16.5345C152.285 18.5293 151.367 16.7545 150.586 18.2743L150.781 19.0202C143.529 18.8288 138.927 22.934 129.062 19.902C131.027 21.7995 131.844 22.294 134.439 23.1332C133.192 23.7677 131.662 24.3434 130.263 24.4694C128.793 24.3984 127.092 24.2279 125.685 24.5629C122.553 25.3079 120.761 26.3459 117.882 27.7784C120.179 23.7865 120.488 22.9087 124.134 20.1559C121.951 21.1736 115.558 25.1809 113.922 24.7859C117.726 18.9369 120.132 17.231 125.919 13.5728L120.402 15.4423C126.366 9.05498 130.115 7.72643 138.355 6.31008C138.094 5.43423 137.066 4.87633 136.262 4.28478C141.052 4.28103 149.904 4.48153 154.359 3.82958C151.404 5.13303 148.705 6.00033 145.652 7.00933Z" fill="#B47850"/>
<path d="M161.192 14.1192C160.405 13.7052 158.405 12.8132 158.095 12.1341C162.165 11.2318 169.678 17.2517 171.696 17.2851C172.211 18.9193 172.343 24.6458 169.978 25.0023C167.679 23.2705 166.807 14.8701 161.192 14.1192Z" fill="#424949"/>
<path d="M173.343 14.4007C174.487 12.0719 172.341 11.2875 172.506 9.3584C175.32 9.822 175.873 12.8016 177.508 13.3712C178.848 16.5107 175.798 20.4678 174.061 22.9175C174.489 19.1419 174.518 18.0393 173.343 14.4007Z" fill="#4E4C47"/>
<path d="M165.26 9.81459C163.976 9.47539 162.858 9.26974 161.754 8.53019L161.968 8.28174C163.603 8.52154 163.929 8.64679 165.463 9.28504L165.26 9.81459Z" fill="#39271B"/>
<path d="M140.399 13.1365C141.156 13.0342 140.853 12.9315 141.376 13.2732C138.077 16.1348 132.905 16.4596 128.78 16.6741C128.097 16.5042 128.361 16.6818 127.938 16.1581C129.125 14.9673 138.192 13.5583 140.399 13.1365Z" fill="#4E4C47"/>
<path d="M182.052 598.59C186.162 599.9 190.349 600.96 194.589 601.755C197.866 602.355 204.066 603.17 206.974 604.295C210.193 605.54 214.524 608.995 217.831 610.66C229.503 616.54 243.934 617.135 256.612 614.99C260.909 614.26 266.102 612.55 270.257 611.265C270.329 612.8 270.302 614.465 270.306 616.01C269.216 616.545 268.043 617.02 266.92 617.495C255.187 621.55 229.686 621.92 218.094 615.74C215.89 614.565 212.977 611.99 210.975 610.35C207.787 607.735 205.312 606.2 201.589 604.465L201.751 611.03C195.49 609.655 187.505 608.105 182.072 604.895L182.052 598.59Z" fill="#344345"/>
<path d="M113.921 24.7862C115.558 25.1812 121.95 21.1739 124.133 20.1562C120.488 22.909 120.179 23.7868 117.882 27.7787C120.761 26.3462 122.552 25.3082 125.684 24.5632C127.092 24.2282 128.792 24.3987 130.263 24.4697C131.662 24.3437 133.192 23.768 134.439 23.1335C136.617 23.2652 138.246 23.2746 140.42 23.2332C135.091 27.7967 128.345 27.3417 122.412 29.2052C127.282 29.6147 129.524 29.5797 134.335 28.5142C133.781 33.3977 134.889 35.5132 136.21 40.1642C136.275 40.3937 135.011 40.9907 134.837 41.0637C134.656 40.6597 134.509 40.5237 134.239 40.1747C133.201 40.1692 133.613 40.0557 132.683 40.7047C131.764 41.1487 131.583 41.2242 130.582 41.4112C130.864 40.5667 133.388 38.4312 134.278 37.5512C131.214 38.9607 128.54 40.3512 125.371 41.7082C126.931 39.9207 130.516 37.1852 132.559 35.3257C130.018 36.0397 127.432 37.3677 125.024 38.5067C124.142 39.2757 119.418 41.4717 118.057 42.1482C119.661 40.4687 122.075 39.2662 123.13 37.5017C119.585 38.8457 115.79 40.1202 113.315 42.8647C112.789 38.4007 111.763 31.8862 112.459 27.1797C112.532 26.6857 113.554 25.2812 113.921 24.7862Z" fill="#424949"/>
<path d="M118.062 38.209C120.457 36.0085 127.84 30.7085 130.84 32.481C130.492 33.386 130.154 33.3735 129.217 33.9925L129.17 34.468C128.195 35.17 126.92 36.162 125.866 36.647L125.276 36.556C123.269 36 120.2 37.481 118.062 38.209Z" fill="#A06D4B"/>
<path d="M125.865 36.6471L125.44 35.9311C125.806 33.9881 127.509 33.7796 129.216 33.9926L129.169 34.4681C128.195 35.1701 126.92 36.1621 125.865 36.6471Z" fill="#B47850"/>
<path d="M125.866 36.6468C126.92 36.1618 128.195 35.1698 129.17 34.4678C128.477 36.6893 126.365 36.9228 125.025 38.5063C124.143 39.2753 119.418 41.4713 118.058 42.1478C119.662 40.4683 122.076 39.2658 123.13 37.5013C123.54 37.1398 124.708 36.7688 125.276 36.5558L125.866 36.6468Z" fill="#4E4C47"/>
<path d="M125.685 24.5631C127.092 24.2281 128.793 24.3986 130.263 24.4696L130.011 24.5591C128.06 25.2621 123.326 28.3786 121.843 28.1066C122.353 25.7711 126.199 25.8726 126.81 24.9681L125.685 24.5631Z" fill="#A06D4B"/>
<path d="M88.1617 618.71C88.4957 619.05 88.5492 619.26 88.6842 619.72C90.0992 624.56 82.6122 627.6 78.9767 628.49C67.7632 631.24 52.7192 631.03 42.4722 625.23C41.2722 623.755 41.7162 621.765 41.8867 619.88C48.8767 622.95 54.3407 625.095 62.1017 625.375C71.7972 625.725 80.6457 625.47 88.1617 618.71Z" fill="#344345"/>
<path d="M354.9 180.156C355.099 179 354.807 178.036 354.564 176.887C355.365 174.435 359.539 172.357 362.03 172.431C362.989 172.459 363.291 173.226 363.78 173.921C363.717 174.334 363.53 175.293 363.25 175.562C359.841 178.839 354.271 186.07 351.129 188.834C351.863 186.919 353.936 181.711 354.9 180.156Z" fill="#F2AF7D"/>
<path d="M354.9 180.155L354.984 180.669L355.371 180.809C358.55 177.946 359.877 175.982 363.78 173.92C363.717 174.333 363.53 175.292 363.25 175.561C359.841 178.839 354.271 186.07 351.129 188.834C351.863 186.919 353.936 181.71 354.9 180.155Z" fill="#B47850"/>
<path d="M93.6933 603.32C94.4308 604.105 94.3013 608.275 94.3238 609.57C93.2983 610.375 91.7208 611.215 90.5533 611.885C89.9223 611.17 89.7958 607.17 89.7168 606.02L93.6933 603.32Z" fill="#344345"/>
<path d="M183.016 24.7303C184.693 24.5658 184.574 24.2958 185.724 25.0213C185.921 25.6023 187.436 27.4983 187.885 28.0923C187.911 30.1593 187.588 32.4828 187.36 34.5588C185.738 30.4963 185.452 28.5863 183.016 24.7303Z" fill="#424949"/>
<path d="M183.016 24.7304L182.2 23.7113C182.523 22.37 183.838 21.8098 184.98 20.7988C185.994 21.9946 187.78 24.0779 187.768 25.7244L187.329 25.9554C186.696 25.6264 186.304 25.4334 185.724 25.0214C184.574 24.2959 184.693 24.5659 183.016 24.7304Z" fill="#A06D4B"/>
<path d="M153.807 16.5347C155.862 17.4607 157.75 18.7178 159.397 20.2557C156.634 19.0784 154.355 17.7264 151.41 18.1658L151.501 18.3578C152.67 18.6031 152.81 18.4448 153.629 19.1807C152.583 19.2672 151.81 19.141 150.781 19.0204L150.586 18.2745C151.367 16.7546 152.284 18.5294 153.807 16.5347Z" fill="#694D39"/>
<path d="M132.683 40.7045C133.614 40.0555 133.202 40.169 134.24 40.1745C134.51 40.5235 134.656 40.6595 134.837 41.0635C132.6 42.324 130.331 43.526 128.032 44.669C129.33 43.521 132.041 41.88 132.683 40.7045Z" fill="#344345"/>
</g>
<defs>
<linearGradient id="paint0_linear_1682_8842" x1="129.332" y1="291.141" x2="130.041" y2="287.797" gradientUnits="userSpaceOnUse">
<stop stop-color="#060606"/>
<stop offset="1" stop-color="#101D21"/>
</linearGradient>
<linearGradient id="paint1_linear_1682_8842" x1="42.5889" y1="372.673" x2="46.7258" y2="364.483" gradientUnits="userSpaceOnUse">
<stop stop-color="#020303"/>
<stop offset="1" stop-color="#442D1C"/>
</linearGradient>
<clipPath id="clip0_1682_8842">
<rect width="370" height="658" fill="white"/>
</clipPath>
</defs>
</svg>
