<svg width="324" height="416" viewBox="0 0 324 416" fill="none" xmlns="http://www.w3.org/2000/svg">
<g id="chegg-wire-words">
<g id="bubbles" filter="url(#filter0_d_1225_66396)">
<mask id="path-1-outside-1_1225_66396" maskUnits="userSpaceOnUse" x="32.3965" y="4.56641" width="286" height="193" fill="black">
<rect fill="white" x="32.3965" y="4.56641" width="286" height="193"/>
<path d="M175.198 6.56641C252.961 6.56644 316 39.1905 316 79.4346C316 119.464 253.632 151.952 176.442 152.298L210.115 195.678L151.429 151.267C84.9853 145.42 34.3967 115.486 34.3965 79.4346C34.3965 39.1905 97.4355 6.56641 175.198 6.56641Z"/>
</mask>
<path d="M175.198 6.56641C252.961 6.56644 316 39.1905 316 79.4346C316 119.464 253.632 151.952 176.442 152.298L210.115 195.678L151.429 151.267C84.9853 145.42 34.3967 115.486 34.3965 79.4346C34.3965 39.1905 97.4355 6.56641 175.198 6.56641Z" fill="#FAFCFF"/>
<path d="M175.198 6.56641L175.198 4.56641H175.198V6.56641ZM316 79.4346L318 79.4346V79.4346H316ZM176.442 152.298L176.433 150.298L172.372 150.316L174.862 153.524L176.442 152.298ZM210.115 195.678L208.908 197.273L211.695 194.451L210.115 195.678ZM151.429 151.267L152.636 149.672L152.177 149.325L151.604 149.274L151.429 151.267ZM34.3965 79.4346L32.3965 79.4346L32.3965 79.4346L34.3965 79.4346ZM175.198 6.56641L175.198 8.56641C213.827 8.56642 248.699 16.6737 273.841 29.6852C299.084 42.749 314 60.4421 314 79.4346H316H318C318 58.183 301.397 39.4421 275.679 26.1328C249.861 12.7712 214.333 4.56642 175.198 4.56641L175.198 6.56641ZM316 79.4346L314 79.4346C314 98.3254 299.244 115.93 274.242 128.974C249.339 141.967 214.777 150.126 176.433 150.298L176.442 152.298L176.451 154.298C215.298 154.124 250.514 145.866 276.092 132.521C301.572 119.227 318 100.573 318 79.4346L316 79.4346ZM176.442 152.298L174.862 153.524L208.535 196.904L210.115 195.678L211.695 194.451L178.022 151.071L176.442 152.298ZM210.115 195.678L211.322 194.083L152.636 149.672L151.429 151.267L150.222 152.861L208.908 197.273L210.115 195.678ZM151.429 151.267L151.604 149.274C118.608 146.371 89.6643 137.493 69.0343 124.968C48.3479 112.409 36.3966 96.446 36.3965 79.4346L34.3965 79.4346L32.3965 79.4346C32.3966 98.4745 45.7397 115.505 66.9585 128.387C88.2336 141.304 117.806 150.316 151.253 153.259L151.429 151.267ZM34.3965 79.4346H36.3965C36.3965 60.4421 51.3127 42.7489 76.5556 29.6852C101.698 16.6737 136.57 8.56641 175.198 8.56641V6.56641V4.56641C136.064 4.56641 100.535 12.7712 74.7171 26.1327C48.9997 39.4421 32.3965 58.183 32.3965 79.4346H34.3965Z" fill="#262629" mask="url(#path-1-outside-1_1225_66396)"/>
</g>
<text id="Chegg Skills&#226;&#128;&#153; two designers left 2 months earlier, so I dropped in as a team of one." fill="#262629" xml:space="preserve" style="white-space: pre" font-family="Anime Ace" font-size="14" letter-spacing="0em"><tspan x="115.412" y="45.5068">Chegg Skills&#x2019;&#10;</tspan><tspan x="85.354" y="66.5068">two designers left&#10;</tspan><tspan x="68.3325" y="87.5068">2 months earlier, so I &#10;</tspan><tspan x="100.42" y="108.507">dropped in as a &#10;</tspan><tspan x="115.883" y="129.507">team of one.</tspan></text>
</g>
<defs>
<filter id="filter0_d_1225_66396" x="32.3965" y="4.56641" width="287.104" height="195.706" filterUnits="userSpaceOnUse" color-interpolation-filters="sRGB">
<feFlood flood-opacity="0" result="BackgroundImageFix"/>
<feColorMatrix in="SourceAlpha" type="matrix" values="0 0 0 0 0 0 0 0 0 0 0 0 0 0 0 0 0 0 127 0" result="hardAlpha"/>
<feOffset dx="1.5" dy="3"/>
<feComposite in2="hardAlpha" operator="out"/>
<feColorMatrix type="matrix" values="0 0 0 0 0.282391 0 0 0 0 0.321074 0 0 0 0 0.417781 0 0 0 1 0"/>
<feBlend mode="normal" in2="BackgroundImageFix" result="effect1_dropShadow_1225_66396"/>
<feBlend mode="normal" in="SourceGraphic" in2="effect1_dropShadow_1225_66396" result="shape"/>
</filter>
</defs>
</svg>
