<?xml version="1.0" encoding="UTF-8"?>
<svg width="521px" height="97px" viewBox="0 0 521 97" version="1.1" xmlns="http://www.w3.org/2000/svg" xmlns:xlink="http://www.w3.org/1999/xlink">
    <!-- Generator: Sketch 64 (93537) - https://sketch.com -->
    <title>Artboard</title>
    <desc>Created with Sketch.</desc>
    <defs>
        <text id="text-1" font-family="AmaticSC-Regular, Amatic SC" font-size="36" font-weight="normal" fill="#FFFFFF" fill-opacity="0.85">
            <tspan x="0" y="88">Empathize</tspan>
        </text>
        <filter x="-0.5%" y="-1.1%" width="102.0%" height="102.2%" filterUnits="objectBoundingBox" id="filter-2">
            <feOffset dx="1" dy="0" in="SourceAlpha" result="shadowOffsetOuter1"></feOffset>
            <feColorMatrix values="0 0 0 0 1   0 0 0 0 1   0 0 0 0 1  0 0 0 1 0" type="matrix" in="shadowOffsetOuter1"></feColorMatrix>
        </filter>
        <text id="text-3" font-family="AmaticSC-Regular, Amatic SC" font-size="36" font-weight="normal" fill="#FFFFFF" fill-opacity="0.85">
            <tspan x="166" y="88">Ideate</tspan>
        </text>
        <filter x="-0.8%" y="-1.1%" width="103.2%" height="102.2%" filterUnits="objectBoundingBox" id="filter-4">
            <feOffset dx="1" dy="0" in="SourceAlpha" result="shadowOffsetOuter1"></feOffset>
            <feColorMatrix values="0 0 0 0 1   0 0 0 0 1   0 0 0 0 1  0 0 0 1 0" type="matrix" in="shadowOffsetOuter1"></feColorMatrix>
        </filter>
        <text id="text-5" font-family="AmaticSC-Regular, Amatic SC" font-size="36" font-weight="normal" fill="#FFFFFF" fill-opacity="0.85">
            <tspan x="296" y="88">Evaluate</tspan>
        </text>
        <filter x="-0.6%" y="-1.1%" width="102.3%" height="102.2%" filterUnits="objectBoundingBox" id="filter-6">
            <feOffset dx="1" dy="0" in="SourceAlpha" result="shadowOffsetOuter1"></feOffset>
            <feColorMatrix values="0 0 0 0 1   0 0 0 0 1   0 0 0 0 1  0 0 0 1 0" type="matrix" in="shadowOffsetOuter1"></feColorMatrix>
        </filter>
        <text id="text-7" font-family="AmaticSC-Regular, Amatic SC" font-size="36" font-weight="normal" fill="#FFFFFF" fill-opacity="0.85">
            <tspan x="449" y="88">Iterate</tspan>
        </text>
        <filter x="-0.7%" y="-1.1%" width="102.8%" height="102.2%" filterUnits="objectBoundingBox" id="filter-8">
            <feOffset dx="1" dy="0" in="SourceAlpha" result="shadowOffsetOuter1"></feOffset>
            <feColorMatrix values="0 0 0 0 1   0 0 0 0 1   0 0 0 0 1  0 0 0 1 0" type="matrix" in="shadowOffsetOuter1"></feColorMatrix>
        </filter>
    </defs>
    <g id="Artboard" stroke="none" stroke-width="1" fill="none" fill-rule="evenodd">
        <g id="Empathize" fill="#FFFFFF" fill-opacity="0.85">
            <use filter="url(#filter-2)" xlink:href="#text-1"></use>
            <use xlink:href="#text-1"></use>
        </g>
        <g id="Ideate" fill="#FFFFFF" fill-opacity="0.85">
            <use filter="url(#filter-4)" xlink:href="#text-3"></use>
            <use xlink:href="#text-3"></use>
        </g>
        <g id="Evaluate" fill="#FFFFFF" fill-opacity="0.85">
            <use filter="url(#filter-6)" xlink:href="#text-5"></use>
            <use xlink:href="#text-5"></use>
        </g>
        <g id="Iterate" fill="#FFFFFF" fill-opacity="0.85">
            <use filter="url(#filter-8)" xlink:href="#text-7"></use>
            <use xlink:href="#text-7"></use>
        </g>
        <g id="np_hand-drawn-arrow_2440565_FFFFFF" transform="translate(132.800000, 72.500000) rotate(3.000000) translate(-132.800000, -72.500000) translate(110.000000, 69.000000)" fill="#FFFFFF" fill-rule="nonzero">
            <path d="M41.9045721,4.05455065 C41.5758771,4.19949804 41.2353104,4.32938591 40.9165202,4.48751341 L40.9165202,4.48939573 C40.5858482,4.64375473 40.2710321,4.82446912 39.972011,5.02965947 C39.5264905,5.35720551 39.3997702,5.81087573 39.6373751,6.09891037 C39.9561704,6.48481029 40.3462258,6.3586861 40.722448,6.19491549 C41.9381999,5.67537367 43.1500488,5.14450708 44.3677777,4.61932697 C44.4549039,4.58167862 44.5459839,4.53273345 44.6311281,4.48379118 C45.8627461,3.84377309 45.943901,2.89311902 44.7380539,2.16086431 C43.5321864,1.42860961 42.2391827,0.820590017 40.9818141,0.161729447 C40.890729,0.124081098 40.795685,0.092079712 40.6966822,0.0694880037 C40.3561053,-0.0265171182 39.9660347,-0.0792230724 39.8491939,0.301028918 L39.8511739,0.301028918 C39.823453,0.570216254 39.9244363,0.837533799 40.1244241,1.02952477 C40.4729187,1.32695174 40.845187,1.59614871 41.2392013,1.83334237 C41.4708704,1.96511449 41.6728402,2.14018095 41.8332389,2.34536648 C40.9520925,2.2870126 40.0650153,2.25877296 39.1818919,2.16653634 C36.1959393,1.79193227 33.1862638,1.61123716 30.1742565,1.62251374 C28.4713723,1.67145601 18.5155274,1.1406087 8.60104562,3.35245645 C6.08235463,3.67247031 3.62312315,4.32190482 1.29051561,5.28007661 C1.01528343,5.38549333 0.746002275,5.50408534 0.484643984,5.63585746 C0.28069733,5.7149188 0.122290686,5.87116205 0.0470462622,6.06505172 C-0.0281981612,6.26082565 -0.0123574967,6.47730703 0.0886278797,6.66179473 C0.348019394,7.07216579 0.738069777,7.04769465 1.14201939,6.90839518 C1.23904536,6.87451147 1.32418957,6.82557016 1.41526959,6.78791892 C4.65862663,5.28948339 8.13779413,4.54783154 11.6445371,3.89648868 L11.646517,3.89648868 C16.0126097,3.11715185 20.4402401,2.68984666 24.8812021,2.62021138 C27.8552932,2.60326952 30.8256332,2.78021831 33.7737709,3.14919854 C35.9281013,3.37132785 38.0923162,3.52003892 40.252476,3.70830477 C40.8148322,3.75724704 41.373184,3.81936942 41.9296095,3.87207538 L41.9045721,4.05455065 Z" id="Path"></path>
        </g>
        <g id="np_hand-drawn-arrow_2440565_FFFFFF" transform="translate(261.999970, 80.503490) scale(1, -1) rotate(3.000000) translate(-261.999970, -80.503490) translate(238.999970, 77.003490)" fill="#FFFFFF" fill-rule="nonzero">
            <path d="M41.9045721,4.05455065 C41.5758771,4.19949804 41.2353104,4.32938591 40.9165202,4.48751341 L40.9165202,4.48939573 C40.5858482,4.64375473 40.2710321,4.82446912 39.972011,5.02965947 C39.5264905,5.35720551 39.3997702,5.81087573 39.6373751,6.09891037 C39.9561704,6.48481029 40.3462258,6.3586861 40.722448,6.19491549 C41.9381999,5.67537367 43.1500488,5.14450708 44.3677777,4.61932697 C44.4549039,4.58167862 44.5459839,4.53273345 44.6311281,4.48379118 C45.8627461,3.84377309 45.943901,2.89311902 44.7380539,2.16086431 C43.5321864,1.42860961 42.2391827,0.820590017 40.9818141,0.161729447 C40.890729,0.124081098 40.795685,0.092079712 40.6966822,0.0694880037 C40.3561053,-0.0265171182 39.9660347,-0.0792230724 39.8491939,0.301028918 L39.8511739,0.301028918 C39.823453,0.570216254 39.9244363,0.837533799 40.1244241,1.02952477 C40.4729187,1.32695174 40.845187,1.59614871 41.2392013,1.83334237 C41.4708704,1.96511449 41.6728402,2.14018095 41.8332389,2.34536648 C40.9520925,2.2870126 40.0650153,2.25877296 39.1818919,2.16653634 C36.1959393,1.79193227 33.1862638,1.61123716 30.1742565,1.62251374 C28.4713723,1.67145601 18.5155274,1.1406087 8.60104562,3.35245645 C6.08235463,3.67247031 3.62312315,4.32190482 1.29051561,5.28007661 C1.01528343,5.38549333 0.746002275,5.50408534 0.484643984,5.63585746 C0.28069733,5.7149188 0.122290686,5.87116205 0.0470462622,6.06505172 C-0.0281981612,6.26082565 -0.0123574967,6.47730703 0.0886278797,6.66179473 C0.348019394,7.07216579 0.738069777,7.04769465 1.14201939,6.90839518 C1.23904536,6.87451147 1.32418957,6.82557016 1.41526959,6.78791892 C4.65862663,5.28948339 8.13779413,4.54783154 11.6445371,3.89648868 L11.646517,3.89648868 C16.0126097,3.11715185 20.4402401,2.68984666 24.8812021,2.62021138 C27.8552932,2.60326952 30.8256332,2.78021831 33.7737709,3.14919854 C35.9281013,3.37132785 38.0923162,3.52003892 40.252476,3.70830477 C40.8148322,3.75724704 41.373184,3.81936942 41.9296095,3.87207538 L41.9045721,4.05455065 Z" id="Path"></path>
        </g>
        <g id="np_hand-drawn-arrow_2440565_FFFFFF" transform="translate(416.800000, 71.500000) rotate(9.000000) translate(-416.800000, -71.500000) translate(394.000000, 68.000000)" fill="#FFFFFF" fill-rule="nonzero">
            <path d="M41.9045721,4.05455065 C41.5758771,4.19949804 41.2353104,4.32938591 40.9165202,4.48751341 L40.9165202,4.48939573 C40.5858482,4.64375473 40.2710321,4.82446912 39.972011,5.02965947 C39.5264905,5.35720551 39.3997702,5.81087573 39.6373751,6.09891037 C39.9561704,6.48481029 40.3462258,6.3586861 40.722448,6.19491549 C41.9381999,5.67537367 43.1500488,5.14450708 44.3677777,4.61932697 C44.4549039,4.58167862 44.5459839,4.53273345 44.6311281,4.48379118 C45.8627461,3.84377309 45.943901,2.89311902 44.7380539,2.16086431 C43.5321864,1.42860961 42.2391827,0.820590017 40.9818141,0.161729447 C40.890729,0.124081098 40.795685,0.092079712 40.6966822,0.0694880037 C40.3561053,-0.0265171182 39.9660347,-0.0792230724 39.8491939,0.301028918 L39.8511739,0.301028918 C39.823453,0.570216254 39.9244363,0.837533799 40.1244241,1.02952477 C40.4729187,1.32695174 40.845187,1.59614871 41.2392013,1.83334237 C41.4708704,1.96511449 41.6728402,2.14018095 41.8332389,2.34536648 C40.9520925,2.2870126 40.0650153,2.25877296 39.1818919,2.16653634 C36.1959393,1.79193227 33.1862638,1.61123716 30.1742565,1.62251374 C28.4713723,1.67145601 18.5155274,1.1406087 8.60104562,3.35245645 C6.08235463,3.67247031 3.62312315,4.32190482 1.29051561,5.28007661 C1.01528343,5.38549333 0.746002275,5.50408534 0.484643984,5.63585746 C0.28069733,5.7149188 0.122290686,5.87116205 0.0470462622,6.06505172 C-0.0281981612,6.26082565 -0.0123574967,6.47730703 0.0886278797,6.66179473 C0.348019394,7.07216579 0.738069777,7.04769465 1.14201939,6.90839518 C1.23904536,6.87451147 1.32418957,6.82557016 1.41526959,6.78791892 C4.65862663,5.28948339 8.13779413,4.54783154 11.6445371,3.89648868 L11.646517,3.89648868 C16.0126097,3.11715185 20.4402401,2.68984666 24.8812021,2.62021138 C27.8552932,2.60326952 30.8256332,2.78021831 33.7737709,3.14919854 C35.9281013,3.37132785 38.0923162,3.52003892 40.252476,3.70830477 C40.8148322,3.75724704 41.373184,3.81936942 41.9296095,3.87207538 L41.9045721,4.05455065 Z" id="Path"></path>
        </g>
        <g id="np_heart_104454_FFFFFF" transform="translate(33.000000, 12.000000)" fill="#FFFFFF" fill-rule="nonzero">
            <path d="M18.3860332,4.02430718 C19.1939845,3.66519351 19.4370162,2.9844268 19.9214637,2.50509694 C22.3042735,0.266092491 27.8793793,-0.372481042 30.6268174,1.66507056 C33.091715,3.50436699 34.9097668,5.66215077 35.7569037,8.50087713 C36.2823952,10.2995632 35.9178637,12.2184815 35.0294244,13.8561652 C33.8585415,16.013949 32.4446269,18.0938696 31.2721281,20.2107233 C30.342661,21.9297876 29.0092183,23.2881553 27.6773915,24.6870534 C24.8495622,27.6848636 22.5473052,31.0823817 19.7998671,34.1209621 C19.4763715,34.4410403 19.2349476,34.8407563 18.6684122,35 C17.4154414,34.8407403 16.3660744,34.2411943 15.3150914,33.4011679 C12.9322817,31.4822497 10.5889808,29.4040877 8.72988501,26.9262977 C7.51795817,25.3680759 6.06299961,24.0877312 4.85107278,22.4887392 C2.79015081,19.7704049 1.45832401,16.7337432 0.689720017,13.4157669 C0.446704448,12.4164968 0.244700484,11.4578371 0.124800523,10.4585671 C-0.197119562,8.30078329 0.045900046,6.34277359 1.54029066,4.10400896 C2.34824189,2.9048849 3.7211126,2.06485853 5.01512728,1.30605282 C8.73137972,-0.851730959 13.6202118,-0.292779263 16.8520166,2.66442056 C17.2954607,3.06568744 17.8209118,3.50444693 18.3858716,4.02434715 L18.3860332,4.02430718 Z M17.5370381,32.9235968 C18.0625296,32.8830024 18.3449893,32.5644831 18.588021,32.2444129 C19.8804198,30.8048245 21.1728186,29.4058464 22.3847454,27.9271666 C25.2125747,24.5702587 28.1207951,21.2524423 30.342661,17.4552161 C31.3936439,15.6971404 32.2820671,13.8984543 32.6860427,11.9000741 C33.0900183,9.98115581 32.8075505,8.06223755 31.7171476,6.4244739 C29.4148098,2.74592102 23.1924543,2.42579487 20.6078183,5.14416914 C18.2250086,7.66264944 17.6995171,9.54095737 17.1740256,10.9807057 C16.6091061,11.1805597 16.3660744,10.9401113 16.1640866,10.5403873 C15.9620988,10.1406633 17.0525097,7.98289551 16.6485341,6.22314098 C16.4055186,5.22387092 15.4776512,4.46506522 14.0226927,4.02474686 C11.3558073,2.94585497 8.69061858,2.94585497 6.10396274,4.8241629 C3.27613347,6.82270301 2.42713832,9.46157536 2.83111393,12.5776991 C3.19406178,12.9774071 3.63906516,12.5371047 3.84105296,13.0180174 C3.88208072,13.6581898 3.03310174,14.1765312 3.55858513,14.8167035 C4.08407661,14.8167035 4.28606441,13.9766772 5.01354369,14.3763852 C4.65059585,15.3350449 3.80161686,16.2546931 4.60956808,17.3741953 C5.33704736,17.1743413 5.33704736,16.0954494 6.42745833,16.2953034 C5.74102297,17.3351838 5.17448758,18.2938435 5.78045099,19.6522113 C6.50793027,18.9730274 6.46688635,17.733293 7.80032905,17.533439 C7.31588149,18.8527952 6.30594247,19.8910768 7.07284977,21.3306652 C7.75928512,20.6904928 7.59834124,19.7318331 8.56723635,19.5725894 C8.08278879,22.8108639 8.08278879,22.8108639 8.93018419,23.410426 C9.49510369,21.6913617 9.49510369,21.6913617 10.5460866,21.4915077 C10.2636188,23.010718 9.29311588,24.5299282 10.6675944,26.0473797 C11.5165896,25.2479637 10.7086222,23.8489856 12.161981,23.4086673 C12.4049966,24.6874132 11.6364895,25.8475257 12.0404732,27.1652831 C12.4444488,27.644613 12.7269086,28.3644072 13.5759037,28.5642612 C13.7368638,26.7655751 13.7368638,26.7655751 14.9487744,26.2862452 C14.423283,27.8850773 14.5858266,29.2840554 15.433222,30.6422632 C16.2001293,30.2831496 15.8371976,28.9638093 17.1295964,29.0028208 C16.8913154,30.2456729 16.002868,31.8038947 17.536723,32.9235968 L17.5370381,32.9235968 Z" id="Shape"></path>
        </g>
        <g id="np_hand-drawn-bulb_2292104_FFFFFF" transform="translate(181.000000, 4.000000)" fill="#FFFFFF" fill-rule="nonzero">
            <path d="M23.6214672,35.9753185 C24.4476305,35.9125577 25.2759312,35.8318719 26.1020946,35.802735 C26.3635554,35.8341137 26.6206234,35.9058387 26.8601421,36.0156614 C26.6514133,36.9278671 25.8142761,36.6342606 25.3243041,37.0646004 L26.8886596,37.0646004 C26.996323,37.0646004 27.1764893,37.208047 27.1808823,37.2999446 L27.1808823,37.3021858 C27.1808823,37.4478759 27.1105729,37.5868355 26.9897308,37.6675271 C26.6513683,37.8289045 26.2932179,37.9432143 25.9372838,38.0754548 L25.6274838,38.1852833 C25.9812299,38.2704561 26.3020038,38.3354547 26.611815,38.4318336 C26.7304635,38.4721782 26.9150228,38.5976923 26.9106299,38.6739026 L26.9106299,38.6716614 C26.8886579,38.8285575 26.8095588,38.9720041 26.6931096,39.0751021 C26.2800392,39.3844074 25.7988868,39.5816465 25.2913093,39.6488885 C24.5772473,39.8035412 23.8741535,40.0276794 23.1710597,40.2226749 C22.8678519,40.3145726 22.5646554,40.4243953 22.1801475,40.5499111 C22.3449358,40.6059453 22.5185099,40.6350839 22.6920897,40.6350839 C23.5336086,40.5005999 24.3641592,40.3078478 25.179298,40.0612975 C25.5813777,39.8640584 26.0493906,39.8640584 26.4492541,40.0612975 C26.8820955,40.28543 27.0117292,40.6350839 26.690944,41.007127 L26.6931416,41.007127 C26.5898768,41.1236745 26.5019901,41.2536773 26.4338744,41.3926369 C26.2712854,41.7198731 25.9219321,41.8117707 25.7812909,41.5069467 C25.5505861,41.0138461 25.1792739,41.110225 24.8584943,41.2133287 C23.9180924,41.5293588 22.9974895,41.9081266 22.0461192,42.2510788 C21.4836442,42.4572862 20.9497429,42.6522817 20.4092044,42.9055396 L20.4092044,42.9077814 C21.9362116,42.5334775 23.4940424,42.3070844 25.0605916,42.2353611 C25.168255,42.0515715 25.2297729,41.7826091 25.3637994,41.7355414 L25.3637994,41.7377827 C25.7197392,41.634679 26.0976606,41.7960564 26.2756277,42.1277795 C26.3788925,42.300363 26.4074606,42.5088082 26.3547229,42.7038037 C26.3019909,42.8987993 26.1745565,43.0624203 26.0009767,43.1587992 C25.8779353,43.1834536 25.7526946,43.1498332 25.6582157,43.0669015 C25.5681297,42.9727661 25.4934274,42.8651812 25.4385017,42.7463902 L19.2512765,44.3534512 L19.2512765,44.5260347 L20.055447,44.5260347 C20.5102587,44.5058626 20.9672753,44.5439655 21.4155116,44.6336196 C21.6725796,44.7098242 21.9428319,44.7098242 22.1976894,44.6336196 C22.8458293,44.5529338 23.4434591,44.2324167 23.8741462,43.7326028 C23.9466548,43.6339804 24.1553837,43.6407052 24.3025947,43.595881 C24.3421434,43.8603621 24.7354361,44.0150147 24.5047369,44.3579267 C24.0828807,45.007912 23.3819805,45.413579 22.6195456,45.4494406 C22.4261949,45.4785781 22.2350433,45.5368512 22.0570706,45.6220241 C21.2924421,45.9021925 20.4794969,46.0299518 19.6665518,45.9940902 C19.1809783,46.0209864 18.6975761,45.9358164 18.249396,45.7408151 C17.8670873,45.5525386 17.6473789,45.3799551 17.845117,44.9249482 C17.845117,44.9249482 17.845117,44.8442623 17.8121594,44.7994324 C17.2496844,45.0796008 17.1595759,45.0527075 16.9750278,44.582019 C16.6322668,45.1042565 16.1378962,44.7770146 15.702878,44.824088 C15.6237828,44.824088 15.4941492,44.5147827 15.4216405,44.3354745 C15.3491319,44.1584097 15.4216405,44.0889242 15.3820918,43.9791014 C15.2195028,43.5711737 15.2129106,43.5711737 15.6062043,43.3425428 C15.3733059,42.9413398 15.3733059,42.441526 15.6062043,42.0403345 C15.6677279,41.8968879 15.5380942,41.6324068 15.4326302,41.4665481 L15.4304326,41.4665481 C15.2041264,41.1012068 15.1448021,40.6529189 15.2678436,40.2383009 L15.2348859,40.2383009 C14.9756187,40.3638166 14.6724109,40.502782 14.5493413,40.1351972 C14.4922164,39.9402016 14.678975,39.6308906 14.8239866,39.429153 C14.9711976,39.2274326 15.2128875,39.1601906 15.3864617,38.9988132 C15.4677562,38.897953 15.5029109,38.7679559 15.4875328,38.6379532 C15.4875328,38.5751924 15.3139586,38.5236434 15.2128875,38.4877818 L15.2128875,38.4900236 C15.1140156,38.4698509 15.0129445,38.4564031 14.9140726,38.4496789 C14.9206643,38.3219196 14.9404392,38.1941661 14.9711976,38.0708881 C15.0217326,37.9162354 15.1228015,37.7772701 15.1557569,37.6226174 C15.2524351,37.1586595 15.5885983,37.1474534 15.9489592,37.1295168 C16.157688,37.091414 16.3620296,37.0398627 16.5619445,36.9681394 C16.5641415,36.9121057 16.5641415,36.858311 16.5619445,36.8022807 L15.9203854,36.8022807 C14.619662,36.8179703 13.3409312,36.4526325 12.2357241,35.751104 C11.677642,35.457486 11.1481224,35.1033565 10.6625377,34.6954517 C10.1352174,34.2404563 9.69575562,33.68685 9.36839515,33.066013 C8.85865217,32.0887974 8.5048835,31.0353255 8.31594814,29.9460494 C8.10502001,28.9665959 8.04789504,27.9602319 8.1467669,26.962819 C8.22586777,26.3890326 8.1467669,25.7704334 8.25882318,25.183163 C8.40383486,24.3180079 8.6631021,23.4752304 9.03003268,22.6817985 C9.61669413,21.4086812 10.3593299,20.2162956 11.2403908,19.1359706 C12.2686514,17.6745939 13.661677,16.5225455 15.2744054,15.7963614 C16.6498256,15.222575 18.0801995,14.7967107 19.5434783,14.527777 C21.7758292,14.1220928 24.0762395,14.527777 26.0451271,15.6753499 C26.8119493,16.0675845 27.5369796,16.5427428 28.2049187,17.0919138 C28.9343925,17.7127507 29.5122231,18.4994693 29.8923437,19.3870595 C30.1801735,20.1221947 30.3757235,20.8798222 30.5954375,21.6239085 L30.5954375,21.6261497 C30.7404492,22.166318 30.8173508,22.7244343 30.8217437,23.2847367 C30.861293,24.1745647 30.861293,25.0688682 30.8217437,25.9586962 C30.7558273,27.1981896 30.4745898,28.4197236 29.9933868,29.5605257 C29.7890508,30.1656983 29.5517539,30.7573868 29.2793247,31.333411 C28.93437,31.9094352 28.5586817,32.4675572 28.1543747,33.0032442 C27.8577591,33.5075509 27.5347522,33.9961817 27.1875926,34.4668587 C26.7964981,34.894955 26.3768411,35.2961522 25.9329921,35.6659575 C25.7989655,35.7085428 25.6539538,35.6861296 25.5396983,35.6031968 C25.3155857,35.414926 25.0013928,35.3902704 24.7509396,35.540436 C24.3730238,35.6906074 23.986311,35.8206044 23.6259895,35.9595698 L23.6214672,35.9753185 Z M9.55959166,28.8144639 C9.56618331,28.9220489 9.5793666,29.0296338 9.59914097,29.1372188 C9.81226838,30.0561951 9.99243476,30.9795896 10.2626928,31.8738931 C10.5922694,32.8936837 11.220644,33.7879873 12.0621628,34.433497 C12.4488644,34.6934911 12.8531152,34.9265976 13.2705842,35.1328279 C13.9538788,35.6326475 14.7536621,35.9396864 15.5886,36.0271314 C16.3620032,36.103336 17.1397936,36.1347164 17.9175841,36.1257538 C18.6250652,36.0136876 19.3237716,35.8545479 20.0093162,35.6483463 C21.1342662,35.4062773 22.2592163,35.1843883 23.4171274,34.9647372 C23.766475,34.9019764 24.1993051,34.998357 24.4586061,34.8145658 L24.4586061,34.816807 C25.0452676,34.4200853 25.5791688,33.9449385 26.0449544,33.404776 C26.7590164,32.5508096 27.4269555,31.6587439 28.0487717,30.7308165 C28.4574435,30.1323572 28.8023757,29.4913231 29.0770323,28.8144846 C29.6021533,27.6893468 29.8812028,26.46328 29.898752,25.2171306 C29.9075401,24.4506093 29.8701884,23.6840307 29.7866957,22.9219849 C29.6790324,22.2675241 29.336277,21.6601138 29.2242207,21.0123663 C28.8968434,19.6698209 28.1410063,18.4796157 27.0753974,17.6257067 C25.5285911,16.3369251 23.6192696,15.5815926 21.624227,15.4740077 C20.5959664,15.3888348 19.5632622,15.4672834 18.5591881,15.7048649 C17.7067009,15.9514152 16.8739567,16.2652017 16.0675925,16.6395056 C15.3161821,16.8703628 14.6855913,17.3926003 14.3120517,18.0964067 C14.279094,18.1658865 14.1494627,18.1815795 14.0637696,18.2174412 C13.9802758,18.2510611 13.7605618,18.3026141 13.6748687,18.4012307 C13.1123937,19.0489782 12.5894607,19.6989635 12.0951014,20.3803349 C10.9503522,21.8013743 10.1242452,23.4621991 9.67820246,25.2463306 C9.55076812,26.0061386 9.47825946,26.7727172 9.4628814,27.5414763 C9.4628814,27.9673348 9.52000636,28.3909671 9.5375837,28.8145936 L9.55959166,28.8144639 Z M21.9779152,36.2335224 C21.7889573,36.249212 21.6021988,36.2761082 21.4154402,36.3142082 C20.6156569,36.502479 19.8114864,36.6638622 19.0315023,36.8879946 C18.2493245,37.1121271 17.412193,37.4617811 16.6124097,37.7486743 C16.5047464,37.7935013 16.4651988,38.0176367 16.3926957,38.156602 C18.2163522,37.4079829 20.0817444,36.7669487 21.9779152,36.2334994 L21.9779152,36.2335224 Z M15.8300632,40.2052146 L17.1242057,39.5395076 C16.8715307,39.3781302 16.1903847,39.7053663 15.8300632,40.2052146 Z M15.8300632,0.430339817 C15.7861198,-0.143446606 15.5312484,-0.143446606 15.4873022,0.430339817 C15.386231,2.02167908 15.4257787,3.61978902 15.6059507,5.20441499 C15.7289921,6.50662327 15.7971022,8.18764535 16.5968629,9.27244596 L16.5946659,9.27244596 C16.6210319,9.30382462 16.6583831,9.32175545 16.7001299,9.32175545 C16.7396787,9.32175545 16.7770315,9.30382462 16.8033947,9.27244596 L16.9769689,9.13572414 C17.3307151,8.84883092 17.1505431,7.83799138 17.0560641,7.4771371 C16.4562408,5.15955636 16.0497401,2.79492514 15.8410056,0.408088379 L15.8300632,0.430339817 Z M29.3800865,3.87305835 C29.0153552,4.7785507 28.7494957,5.71996209 28.4529027,6.65006988 C28.1540878,7.58023505 27.8904276,8.60002566 27.1939148,9.23210878 C26.8511538,9.54141409 26.8401687,11.2582634 27.3279414,11.4353339 L27.5586461,11.5205067 L27.6553243,11.4756802 C28.2177994,10.946718 28.3913791,9.86861924 28.6001136,9.15138621 C28.9714371,7.87155559 29.2065179,6.55815847 29.6415924,5.28951669 L29.6393954,5.28951669 C29.7668297,4.9219319 29.784407,4.52299541 29.6899304,4.14194385 C29.6679584,4.05677099 29.5273413,3.52782024 29.3911155,3.86850019 L29.3800865,3.87305835 Z M40.7482692,15.6534674 C40.1857941,15.6019161 39.8430219,15.9739787 39.3706553,16.2272538 C38.8081803,16.5320778 38.1885578,16.8010402 37.6107272,17.0879334 C37.030703,17.3748267 36.4066932,17.7715426 35.7826834,18.0696246 C35.3278717,18.287038 35.0466286,18.3632426 34.7873839,18.8316704 C34.6182026,19.1477005 34.7434405,21.2523605 35.1015768,20.9318434 C35.8662053,20.3983999 36.6923124,19.9456193 37.4855147,19.4570402 C37.9974569,19.1365288 38.5269934,18.8832538 39.02574,18.526875 C39.5266915,18.170502 40.1506901,17.4241149 40.7856681,17.2537577 C41.0910752,17.1551353 41.0625127,15.6870339 40.7483164,15.65341 L40.7482692,15.6534674 Z M34.5897301,30.6683105 C34.2293974,30.4912457 34.1173411,32.1139654 34.4820668,32.3201842 C36.2090339,33.2951621 37.4240924,35.8211995 39.4828072,36.0946087 C40.1287535,36.1865063 39.8079853,33.9608117 39.5333422,33.6851647 C38.1205737,32.257412 36.3452338,31.5178013 34.589693,30.6683105 L34.5897301,30.6683105 Z M2.13548385,13.3181566 C2.63644098,14.064538 3.04073115,14.8736343 3.56366418,15.6133023 C4.03166027,16.2969115 4.56998824,16.9267568 5.17200525,17.489297 C5.72129586,17.9958414 6.43318675,18.2827289 7.17362887,18.29168 C7.60647027,18.3499537 7.58889293,16.1175458 7.20658653,15.9113844 C6.64411151,15.590873 5.99152799,15.5438053 5.42905296,15.1358547 L5.43125055,15.1358547 C4.91491536,14.7301704 4.44472561,14.2639862 4.0294503,13.7484391 C3.30436375,12.9213833 2.72433951,11.9015354 1.77955022,11.3389951 C1.5818065,11.2246854 1.59938384,11.9127816 1.61036898,12.0114155 L1.61256601,12.0091742 C1.66749507,12.4865818 1.84766369,12.9371016 2.13549341,13.3180958 L2.13548385,13.3181566 Z M4.51503443,28.998592 C3.83393342,29.1487634 3.21650459,29.5723784 2.52882263,29.7337272 C1.76858139,29.9332098 0.992984583,30.0609633 0.210806818,30.1192428 C-0.0989931751,30.1192428 -0.0484604191,31.455075 0.239369862,31.4394106 C1.64555742,31.3542377 3.37252448,31.7957836 4.65569874,31.0830376 C5.03141519,30.8745924 4.92375184,28.9066657 4.51288071,28.9985863 L4.51503443,28.998592 Z M8.40623663,37.9617097 C6.94728892,39.2415403 5.56309414,40.6042831 4.260177,42.0477002 C4.11296603,42.1978716 4.02947224,43.3723435 4.3568552,43.2804229 C6.05305488,42.7806033 7.56251285,41.7675203 8.68746289,40.3778669 C8.97748626,39.9161468 9.07636375,39.3580763 8.9621082,38.8223893 C8.9511225,38.6453246 8.76655813,37.6636277 8.40622538,37.9617097 L8.40623663,37.9617097 Z" id="Shape"></path>
        </g>
        <g id="np_search-web-icon_854325_FFFFFF" transform="translate(340.000000, 31.000000) scale(-1, 1) translate(-340.000000, -31.000000) translate(321.000000, 12.000000)" fill="#FFFFFF" fill-rule="nonzero">
            <path d="M35.9379711,31.7860865 C34.6665041,30.4866804 33.1775464,29.4199715 31.809434,28.2323498 C29.2785615,26.0324028 27.1734699,23.4699497 24.5277826,21.3939325 C28.623151,15.9123219 27.2278233,9.07986126 22.5828132,3.97568724 C16.3249845,-2.89901164 8.32490985,-0.02224718 3.1601794,6.26320506 C-1.88347368,12.0318964 -0.575745373,19.4235883 4.85750467,24.4604596 C8.9981804,28.3011997 15.5642692,27.9023345 20.3362327,25.1222461 C20.3392535,25.1252686 20.3422735,25.1313119 20.3452934,25.1343343 C23.0393034,27.8842294 25.5248686,30.8214889 28.309648,33.4930188 C30.0069732,35.1218212 33.335209,38.7570947 36.077619,37.8595708 C39.5236076,36.7264102 37.6118842,33.4960358 35.9386893,31.7856192 L35.9379711,31.7860865 Z M6.95981283,23.3399859 C1.6563769,19.6200812 -0.0560250425,12.2768163 4.33832555,7.25154891 C8.92295162,1.67022204 14.6430452,0.0323685649 20.4324916,4.93680058 C25.1017017,8.8924194 27.0134251,16.0239515 22.9362261,21.0159544 C19.206332,25.584956 11.7284517,26.6879465 6.95958088,23.3397538 L6.95981283,23.3399859 Z M34.4674146,35.5782449 C29.5354836,33.2000618 25.8930343,27.8028503 22.1509242,23.8683506 C22.4770986,23.6054524 22.7881808,23.3334799 23.0841322,23.0433899 C26.2220925,25.4789736 28.7258271,28.564299 31.7976819,31.0694289 C32.8940274,31.9638584 33.9631575,32.8825788 34.9537343,33.8948267 C36.1618018,35.133815 36.4728454,36.5450054 34.4674842,35.5780128 L34.4674146,35.5782449 Z" id="Shape"></path>
            <path d="M22.9797247,12.5379504 C21.5823686,6.78145469 16.0459637,2.83615744 9.98271565,4.31060588 C8.99706056,4.55071145 8.45744154,6.53542799 9.81116823,6.20715896 C15.0824747,4.92458333 19.9080644,8.54441262 21.1081937,13.4985594 C21.4045051,14.7021606 23.2104562,13.4803237 22.9796928,12.538106 L22.9797247,12.5379504 Z" id="Path"></path>
        </g>
        <g id="np_reload_244414_FFFFFF" transform="translate(475.000000, 14.000000)" fill="#FFFFFF" fill-rule="nonzero">
            <path d="M23.2285176,24.5568306 C20.441202,28.4679665 15.404303,30.5884179 10.6364379,29.2305733 C6.17011121,27.9708966 2.71115088,23.7620756 2.03957329,19.2878501 C1.33387957,14.713866 3.58473899,9.80845783 7.31112152,7.05896344 C11.5753034,3.91043443 17.5526796,3.84441475 22.1200788,6.36244254 C23.060556,6.89325139 24.336822,5.66592164 23.1615613,5.03674611 C18.4605182,2.584738 12.7863592,2.21964121 7.98424373,4.63930232 C-0.00786527776,8.682345 -2.79524803,19.4536285 3.31610796,26.3137761 C9.0245174,32.7765461 19.9719036,32.6767875 24.8747557,25.2534841 C25.4781346,24.3252314 23.7323015,23.8604754 23.2286183,24.5569632 L23.2285176,24.5568306 Z" id="Path"></path>
            <path d="M27.9715804,7.993981 C27.3387403,5.5012843 26.9376481,3.11121501 25.8711805,0.758124838 C25.2044715,-0.695832823 22.7043129,0.134604416 23.5715679,1.62374071 C24.5377625,3.31979381 25.4714218,5.29464448 25.8386451,7.26790241 C24.539096,7.12994402 23.205678,7.05961446 21.938731,7.05961446 C20.9386675,7.05961446 20.5714442,8.34044895 21.6717874,8.51357212 C23.404964,8.79083927 25.238347,8.96396937 27.0054591,8.99776301 C27.5380596,9.03292779 28.138331,8.65151667 27.9716537,7.9942026 L27.9715804,7.993981 Z" id="Path"></path>
        </g>
    </g>
</svg>